%TF.GenerationSoftware,KiCad,Pcbnew,9.0.6*%
%TF.CreationDate,2025-12-01T16:28:18+01:00*%
%TF.ProjectId,Wavin-AHC-9000-mqtt,57617669-6e2d-4414-9843-2d393030302d,rev?*%
%TF.SameCoordinates,Original*%
%TF.FileFunction,Legend,Top*%
%TF.FilePolarity,Positive*%
%FSLAX46Y46*%
G04 Gerber Fmt 4.6, Leading zero omitted, Abs format (unit mm)*
G04 Created by KiCad (PCBNEW 9.0.6) date 2025-12-01 16:28:18*
%MOMM*%
%LPD*%
G01*
G04 APERTURE LIST*
%ADD10C,0.150000*%
%ADD11C,0.300000*%
%ADD12C,0.152400*%
%ADD13C,0.101600*%
%ADD14C,0.100000*%
%ADD15C,0.120000*%
%ADD16C,1.000000*%
%ADD17C,0.800000*%
G04 APERTURE END LIST*
D10*
X85202381Y-92974160D02*
X85678571Y-92974160D01*
X85107143Y-93259875D02*
X85440476Y-92259875D01*
X85440476Y-92259875D02*
X85773809Y-93259875D01*
X86107143Y-93259875D02*
X86107143Y-92259875D01*
X86107143Y-92736065D02*
X86678571Y-92736065D01*
X86678571Y-93259875D02*
X86678571Y-92259875D01*
X87726190Y-93164636D02*
X87678571Y-93212256D01*
X87678571Y-93212256D02*
X87535714Y-93259875D01*
X87535714Y-93259875D02*
X87440476Y-93259875D01*
X87440476Y-93259875D02*
X87297619Y-93212256D01*
X87297619Y-93212256D02*
X87202381Y-93117017D01*
X87202381Y-93117017D02*
X87154762Y-93021779D01*
X87154762Y-93021779D02*
X87107143Y-92831303D01*
X87107143Y-92831303D02*
X87107143Y-92688446D01*
X87107143Y-92688446D02*
X87154762Y-92497970D01*
X87154762Y-92497970D02*
X87202381Y-92402732D01*
X87202381Y-92402732D02*
X87297619Y-92307494D01*
X87297619Y-92307494D02*
X87440476Y-92259875D01*
X87440476Y-92259875D02*
X87535714Y-92259875D01*
X87535714Y-92259875D02*
X87678571Y-92307494D01*
X87678571Y-92307494D02*
X87726190Y-92355113D01*
X88964286Y-93259875D02*
X89154762Y-93259875D01*
X89154762Y-93259875D02*
X89250000Y-93212256D01*
X89250000Y-93212256D02*
X89297619Y-93164636D01*
X89297619Y-93164636D02*
X89392857Y-93021779D01*
X89392857Y-93021779D02*
X89440476Y-92831303D01*
X89440476Y-92831303D02*
X89440476Y-92450351D01*
X89440476Y-92450351D02*
X89392857Y-92355113D01*
X89392857Y-92355113D02*
X89345238Y-92307494D01*
X89345238Y-92307494D02*
X89250000Y-92259875D01*
X89250000Y-92259875D02*
X89059524Y-92259875D01*
X89059524Y-92259875D02*
X88964286Y-92307494D01*
X88964286Y-92307494D02*
X88916667Y-92355113D01*
X88916667Y-92355113D02*
X88869048Y-92450351D01*
X88869048Y-92450351D02*
X88869048Y-92688446D01*
X88869048Y-92688446D02*
X88916667Y-92783684D01*
X88916667Y-92783684D02*
X88964286Y-92831303D01*
X88964286Y-92831303D02*
X89059524Y-92878922D01*
X89059524Y-92878922D02*
X89250000Y-92878922D01*
X89250000Y-92878922D02*
X89345238Y-92831303D01*
X89345238Y-92831303D02*
X89392857Y-92783684D01*
X89392857Y-92783684D02*
X89440476Y-92688446D01*
X90059524Y-92259875D02*
X90154762Y-92259875D01*
X90154762Y-92259875D02*
X90250000Y-92307494D01*
X90250000Y-92307494D02*
X90297619Y-92355113D01*
X90297619Y-92355113D02*
X90345238Y-92450351D01*
X90345238Y-92450351D02*
X90392857Y-92640827D01*
X90392857Y-92640827D02*
X90392857Y-92878922D01*
X90392857Y-92878922D02*
X90345238Y-93069398D01*
X90345238Y-93069398D02*
X90297619Y-93164636D01*
X90297619Y-93164636D02*
X90250000Y-93212256D01*
X90250000Y-93212256D02*
X90154762Y-93259875D01*
X90154762Y-93259875D02*
X90059524Y-93259875D01*
X90059524Y-93259875D02*
X89964286Y-93212256D01*
X89964286Y-93212256D02*
X89916667Y-93164636D01*
X89916667Y-93164636D02*
X89869048Y-93069398D01*
X89869048Y-93069398D02*
X89821429Y-92878922D01*
X89821429Y-92878922D02*
X89821429Y-92640827D01*
X89821429Y-92640827D02*
X89869048Y-92450351D01*
X89869048Y-92450351D02*
X89916667Y-92355113D01*
X89916667Y-92355113D02*
X89964286Y-92307494D01*
X89964286Y-92307494D02*
X90059524Y-92259875D01*
X91011905Y-92259875D02*
X91107143Y-92259875D01*
X91107143Y-92259875D02*
X91202381Y-92307494D01*
X91202381Y-92307494D02*
X91250000Y-92355113D01*
X91250000Y-92355113D02*
X91297619Y-92450351D01*
X91297619Y-92450351D02*
X91345238Y-92640827D01*
X91345238Y-92640827D02*
X91345238Y-92878922D01*
X91345238Y-92878922D02*
X91297619Y-93069398D01*
X91297619Y-93069398D02*
X91250000Y-93164636D01*
X91250000Y-93164636D02*
X91202381Y-93212256D01*
X91202381Y-93212256D02*
X91107143Y-93259875D01*
X91107143Y-93259875D02*
X91011905Y-93259875D01*
X91011905Y-93259875D02*
X90916667Y-93212256D01*
X90916667Y-93212256D02*
X90869048Y-93164636D01*
X90869048Y-93164636D02*
X90821429Y-93069398D01*
X90821429Y-93069398D02*
X90773810Y-92878922D01*
X90773810Y-92878922D02*
X90773810Y-92640827D01*
X90773810Y-92640827D02*
X90821429Y-92450351D01*
X90821429Y-92450351D02*
X90869048Y-92355113D01*
X90869048Y-92355113D02*
X90916667Y-92307494D01*
X90916667Y-92307494D02*
X91011905Y-92259875D01*
X91964286Y-92259875D02*
X92059524Y-92259875D01*
X92059524Y-92259875D02*
X92154762Y-92307494D01*
X92154762Y-92307494D02*
X92202381Y-92355113D01*
X92202381Y-92355113D02*
X92250000Y-92450351D01*
X92250000Y-92450351D02*
X92297619Y-92640827D01*
X92297619Y-92640827D02*
X92297619Y-92878922D01*
X92297619Y-92878922D02*
X92250000Y-93069398D01*
X92250000Y-93069398D02*
X92202381Y-93164636D01*
X92202381Y-93164636D02*
X92154762Y-93212256D01*
X92154762Y-93212256D02*
X92059524Y-93259875D01*
X92059524Y-93259875D02*
X91964286Y-93259875D01*
X91964286Y-93259875D02*
X91869048Y-93212256D01*
X91869048Y-93212256D02*
X91821429Y-93164636D01*
X91821429Y-93164636D02*
X91773810Y-93069398D01*
X91773810Y-93069398D02*
X91726191Y-92878922D01*
X91726191Y-92878922D02*
X91726191Y-92640827D01*
X91726191Y-92640827D02*
X91773810Y-92450351D01*
X91773810Y-92450351D02*
X91821429Y-92355113D01*
X91821429Y-92355113D02*
X91869048Y-92307494D01*
X91869048Y-92307494D02*
X91964286Y-92259875D01*
X80773808Y-94822200D02*
X80869046Y-94869819D01*
X80869046Y-94869819D02*
X81059522Y-94869819D01*
X81059522Y-94869819D02*
X81154760Y-94822200D01*
X81154760Y-94822200D02*
X81202379Y-94726961D01*
X81202379Y-94726961D02*
X81202379Y-94679342D01*
X81202379Y-94679342D02*
X81154760Y-94584104D01*
X81154760Y-94584104D02*
X81059522Y-94536485D01*
X81059522Y-94536485D02*
X80916665Y-94536485D01*
X80916665Y-94536485D02*
X80821427Y-94488866D01*
X80821427Y-94488866D02*
X80773808Y-94393628D01*
X80773808Y-94393628D02*
X80773808Y-94346009D01*
X80773808Y-94346009D02*
X80821427Y-94250771D01*
X80821427Y-94250771D02*
X80916665Y-94203152D01*
X80916665Y-94203152D02*
X81059522Y-94203152D01*
X81059522Y-94203152D02*
X81154760Y-94250771D01*
X81488094Y-94203152D02*
X81869046Y-94203152D01*
X81630951Y-93869819D02*
X81630951Y-94726961D01*
X81630951Y-94726961D02*
X81678570Y-94822200D01*
X81678570Y-94822200D02*
X81773808Y-94869819D01*
X81773808Y-94869819D02*
X81869046Y-94869819D01*
X82107142Y-94203152D02*
X82345237Y-94869819D01*
X82583332Y-94203152D02*
X82345237Y-94869819D01*
X82345237Y-94869819D02*
X82249999Y-95107914D01*
X82249999Y-95107914D02*
X82202380Y-95155533D01*
X82202380Y-95155533D02*
X82107142Y-95203152D01*
X82964285Y-94869819D02*
X82964285Y-94203152D01*
X82964285Y-94393628D02*
X83011904Y-94298390D01*
X83011904Y-94298390D02*
X83059523Y-94250771D01*
X83059523Y-94250771D02*
X83154761Y-94203152D01*
X83154761Y-94203152D02*
X83249999Y-94203152D01*
X83964285Y-94822200D02*
X83869047Y-94869819D01*
X83869047Y-94869819D02*
X83678571Y-94869819D01*
X83678571Y-94869819D02*
X83583333Y-94822200D01*
X83583333Y-94822200D02*
X83535714Y-94726961D01*
X83535714Y-94726961D02*
X83535714Y-94346009D01*
X83535714Y-94346009D02*
X83583333Y-94250771D01*
X83583333Y-94250771D02*
X83678571Y-94203152D01*
X83678571Y-94203152D02*
X83869047Y-94203152D01*
X83869047Y-94203152D02*
X83964285Y-94250771D01*
X83964285Y-94250771D02*
X84011904Y-94346009D01*
X84011904Y-94346009D02*
X84011904Y-94441247D01*
X84011904Y-94441247D02*
X83535714Y-94536485D01*
X84821428Y-94822200D02*
X84726190Y-94869819D01*
X84726190Y-94869819D02*
X84535714Y-94869819D01*
X84535714Y-94869819D02*
X84440476Y-94822200D01*
X84440476Y-94822200D02*
X84392857Y-94726961D01*
X84392857Y-94726961D02*
X84392857Y-94346009D01*
X84392857Y-94346009D02*
X84440476Y-94250771D01*
X84440476Y-94250771D02*
X84535714Y-94203152D01*
X84535714Y-94203152D02*
X84726190Y-94203152D01*
X84726190Y-94203152D02*
X84821428Y-94250771D01*
X84821428Y-94250771D02*
X84869047Y-94346009D01*
X84869047Y-94346009D02*
X84869047Y-94441247D01*
X84869047Y-94441247D02*
X84392857Y-94536485D01*
X85297619Y-94203152D02*
X85297619Y-94869819D01*
X85297619Y-94298390D02*
X85345238Y-94250771D01*
X85345238Y-94250771D02*
X85440476Y-94203152D01*
X85440476Y-94203152D02*
X85583333Y-94203152D01*
X85583333Y-94203152D02*
X85678571Y-94250771D01*
X85678571Y-94250771D02*
X85726190Y-94346009D01*
X85726190Y-94346009D02*
X85726190Y-94869819D01*
X86202381Y-94869819D02*
X86202381Y-93869819D01*
X86630952Y-94869819D02*
X86630952Y-94346009D01*
X86630952Y-94346009D02*
X86583333Y-94250771D01*
X86583333Y-94250771D02*
X86488095Y-94203152D01*
X86488095Y-94203152D02*
X86345238Y-94203152D01*
X86345238Y-94203152D02*
X86250000Y-94250771D01*
X86250000Y-94250771D02*
X86202381Y-94298390D01*
X87488095Y-94822200D02*
X87392857Y-94869819D01*
X87392857Y-94869819D02*
X87202381Y-94869819D01*
X87202381Y-94869819D02*
X87107143Y-94822200D01*
X87107143Y-94822200D02*
X87059524Y-94726961D01*
X87059524Y-94726961D02*
X87059524Y-94346009D01*
X87059524Y-94346009D02*
X87107143Y-94250771D01*
X87107143Y-94250771D02*
X87202381Y-94203152D01*
X87202381Y-94203152D02*
X87392857Y-94203152D01*
X87392857Y-94203152D02*
X87488095Y-94250771D01*
X87488095Y-94250771D02*
X87535714Y-94346009D01*
X87535714Y-94346009D02*
X87535714Y-94441247D01*
X87535714Y-94441247D02*
X87059524Y-94536485D01*
X88392857Y-94869819D02*
X88392857Y-93869819D01*
X88392857Y-94822200D02*
X88297619Y-94869819D01*
X88297619Y-94869819D02*
X88107143Y-94869819D01*
X88107143Y-94869819D02*
X88011905Y-94822200D01*
X88011905Y-94822200D02*
X87964286Y-94774580D01*
X87964286Y-94774580D02*
X87916667Y-94679342D01*
X87916667Y-94679342D02*
X87916667Y-94393628D01*
X87916667Y-94393628D02*
X87964286Y-94298390D01*
X87964286Y-94298390D02*
X88011905Y-94250771D01*
X88011905Y-94250771D02*
X88107143Y-94203152D01*
X88107143Y-94203152D02*
X88297619Y-94203152D01*
X88297619Y-94203152D02*
X88392857Y-94250771D01*
X90154762Y-94869819D02*
X89583334Y-94869819D01*
X89869048Y-94869819D02*
X89869048Y-93869819D01*
X89869048Y-93869819D02*
X89773810Y-94012676D01*
X89773810Y-94012676D02*
X89678572Y-94107914D01*
X89678572Y-94107914D02*
X89583334Y-94155533D01*
X91011905Y-93869819D02*
X90821429Y-93869819D01*
X90821429Y-93869819D02*
X90726191Y-93917438D01*
X90726191Y-93917438D02*
X90678572Y-93965057D01*
X90678572Y-93965057D02*
X90583334Y-94107914D01*
X90583334Y-94107914D02*
X90535715Y-94298390D01*
X90535715Y-94298390D02*
X90535715Y-94679342D01*
X90535715Y-94679342D02*
X90583334Y-94774580D01*
X90583334Y-94774580D02*
X90630953Y-94822200D01*
X90630953Y-94822200D02*
X90726191Y-94869819D01*
X90726191Y-94869819D02*
X90916667Y-94869819D01*
X90916667Y-94869819D02*
X91011905Y-94822200D01*
X91011905Y-94822200D02*
X91059524Y-94774580D01*
X91059524Y-94774580D02*
X91107143Y-94679342D01*
X91107143Y-94679342D02*
X91107143Y-94441247D01*
X91107143Y-94441247D02*
X91059524Y-94346009D01*
X91059524Y-94346009D02*
X91011905Y-94298390D01*
X91011905Y-94298390D02*
X90916667Y-94250771D01*
X90916667Y-94250771D02*
X90726191Y-94250771D01*
X90726191Y-94250771D02*
X90630953Y-94298390D01*
X90630953Y-94298390D02*
X90583334Y-94346009D01*
X90583334Y-94346009D02*
X90535715Y-94441247D01*
X92297620Y-94869819D02*
X92297620Y-93869819D01*
X92392858Y-94488866D02*
X92678572Y-94869819D01*
X92678572Y-94203152D02*
X92297620Y-94584104D01*
X93107144Y-94869819D02*
X93107144Y-94203152D01*
X93107144Y-94393628D02*
X93154763Y-94298390D01*
X93154763Y-94298390D02*
X93202382Y-94250771D01*
X93202382Y-94250771D02*
X93297620Y-94203152D01*
X93297620Y-94203152D02*
X93392858Y-94203152D01*
X94107144Y-94822200D02*
X94011906Y-94869819D01*
X94011906Y-94869819D02*
X93821430Y-94869819D01*
X93821430Y-94869819D02*
X93726192Y-94822200D01*
X93726192Y-94822200D02*
X93678573Y-94726961D01*
X93678573Y-94726961D02*
X93678573Y-94346009D01*
X93678573Y-94346009D02*
X93726192Y-94250771D01*
X93726192Y-94250771D02*
X93821430Y-94203152D01*
X93821430Y-94203152D02*
X94011906Y-94203152D01*
X94011906Y-94203152D02*
X94107144Y-94250771D01*
X94107144Y-94250771D02*
X94154763Y-94346009D01*
X94154763Y-94346009D02*
X94154763Y-94441247D01*
X94154763Y-94441247D02*
X93678573Y-94536485D01*
X95011906Y-94869819D02*
X95011906Y-93869819D01*
X95011906Y-94822200D02*
X94916668Y-94869819D01*
X94916668Y-94869819D02*
X94726192Y-94869819D01*
X94726192Y-94869819D02*
X94630954Y-94822200D01*
X94630954Y-94822200D02*
X94583335Y-94774580D01*
X94583335Y-94774580D02*
X94535716Y-94679342D01*
X94535716Y-94679342D02*
X94535716Y-94393628D01*
X94535716Y-94393628D02*
X94583335Y-94298390D01*
X94583335Y-94298390D02*
X94630954Y-94250771D01*
X94630954Y-94250771D02*
X94726192Y-94203152D01*
X94726192Y-94203152D02*
X94916668Y-94203152D01*
X94916668Y-94203152D02*
X95011906Y-94250771D01*
X95440478Y-94822200D02*
X95535716Y-94869819D01*
X95535716Y-94869819D02*
X95726192Y-94869819D01*
X95726192Y-94869819D02*
X95821430Y-94822200D01*
X95821430Y-94822200D02*
X95869049Y-94726961D01*
X95869049Y-94726961D02*
X95869049Y-94679342D01*
X95869049Y-94679342D02*
X95821430Y-94584104D01*
X95821430Y-94584104D02*
X95726192Y-94536485D01*
X95726192Y-94536485D02*
X95583335Y-94536485D01*
X95583335Y-94536485D02*
X95488097Y-94488866D01*
X95488097Y-94488866D02*
X95440478Y-94393628D01*
X95440478Y-94393628D02*
X95440478Y-94346009D01*
X95440478Y-94346009D02*
X95488097Y-94250771D01*
X95488097Y-94250771D02*
X95583335Y-94203152D01*
X95583335Y-94203152D02*
X95726192Y-94203152D01*
X95726192Y-94203152D02*
X95821430Y-94250771D01*
X96678573Y-94822200D02*
X96583335Y-94869819D01*
X96583335Y-94869819D02*
X96392859Y-94869819D01*
X96392859Y-94869819D02*
X96297621Y-94822200D01*
X96297621Y-94822200D02*
X96250002Y-94726961D01*
X96250002Y-94726961D02*
X96250002Y-94346009D01*
X96250002Y-94346009D02*
X96297621Y-94250771D01*
X96297621Y-94250771D02*
X96392859Y-94203152D01*
X96392859Y-94203152D02*
X96583335Y-94203152D01*
X96583335Y-94203152D02*
X96678573Y-94250771D01*
X96678573Y-94250771D02*
X96726192Y-94346009D01*
X96726192Y-94346009D02*
X96726192Y-94441247D01*
X96726192Y-94441247D02*
X96250002Y-94536485D01*
X135702381Y-92474160D02*
X136178571Y-92474160D01*
X135607143Y-92759875D02*
X135940476Y-91759875D01*
X135940476Y-91759875D02*
X136273809Y-92759875D01*
X136607143Y-92759875D02*
X136607143Y-91759875D01*
X136607143Y-92236065D02*
X137178571Y-92236065D01*
X137178571Y-92759875D02*
X137178571Y-91759875D01*
X138226190Y-92664636D02*
X138178571Y-92712256D01*
X138178571Y-92712256D02*
X138035714Y-92759875D01*
X138035714Y-92759875D02*
X137940476Y-92759875D01*
X137940476Y-92759875D02*
X137797619Y-92712256D01*
X137797619Y-92712256D02*
X137702381Y-92617017D01*
X137702381Y-92617017D02*
X137654762Y-92521779D01*
X137654762Y-92521779D02*
X137607143Y-92331303D01*
X137607143Y-92331303D02*
X137607143Y-92188446D01*
X137607143Y-92188446D02*
X137654762Y-91997970D01*
X137654762Y-91997970D02*
X137702381Y-91902732D01*
X137702381Y-91902732D02*
X137797619Y-91807494D01*
X137797619Y-91807494D02*
X137940476Y-91759875D01*
X137940476Y-91759875D02*
X138035714Y-91759875D01*
X138035714Y-91759875D02*
X138178571Y-91807494D01*
X138178571Y-91807494D02*
X138226190Y-91855113D01*
X139464286Y-92759875D02*
X139654762Y-92759875D01*
X139654762Y-92759875D02*
X139750000Y-92712256D01*
X139750000Y-92712256D02*
X139797619Y-92664636D01*
X139797619Y-92664636D02*
X139892857Y-92521779D01*
X139892857Y-92521779D02*
X139940476Y-92331303D01*
X139940476Y-92331303D02*
X139940476Y-91950351D01*
X139940476Y-91950351D02*
X139892857Y-91855113D01*
X139892857Y-91855113D02*
X139845238Y-91807494D01*
X139845238Y-91807494D02*
X139750000Y-91759875D01*
X139750000Y-91759875D02*
X139559524Y-91759875D01*
X139559524Y-91759875D02*
X139464286Y-91807494D01*
X139464286Y-91807494D02*
X139416667Y-91855113D01*
X139416667Y-91855113D02*
X139369048Y-91950351D01*
X139369048Y-91950351D02*
X139369048Y-92188446D01*
X139369048Y-92188446D02*
X139416667Y-92283684D01*
X139416667Y-92283684D02*
X139464286Y-92331303D01*
X139464286Y-92331303D02*
X139559524Y-92378922D01*
X139559524Y-92378922D02*
X139750000Y-92378922D01*
X139750000Y-92378922D02*
X139845238Y-92331303D01*
X139845238Y-92331303D02*
X139892857Y-92283684D01*
X139892857Y-92283684D02*
X139940476Y-92188446D01*
X140559524Y-91759875D02*
X140654762Y-91759875D01*
X140654762Y-91759875D02*
X140750000Y-91807494D01*
X140750000Y-91807494D02*
X140797619Y-91855113D01*
X140797619Y-91855113D02*
X140845238Y-91950351D01*
X140845238Y-91950351D02*
X140892857Y-92140827D01*
X140892857Y-92140827D02*
X140892857Y-92378922D01*
X140892857Y-92378922D02*
X140845238Y-92569398D01*
X140845238Y-92569398D02*
X140797619Y-92664636D01*
X140797619Y-92664636D02*
X140750000Y-92712256D01*
X140750000Y-92712256D02*
X140654762Y-92759875D01*
X140654762Y-92759875D02*
X140559524Y-92759875D01*
X140559524Y-92759875D02*
X140464286Y-92712256D01*
X140464286Y-92712256D02*
X140416667Y-92664636D01*
X140416667Y-92664636D02*
X140369048Y-92569398D01*
X140369048Y-92569398D02*
X140321429Y-92378922D01*
X140321429Y-92378922D02*
X140321429Y-92140827D01*
X140321429Y-92140827D02*
X140369048Y-91950351D01*
X140369048Y-91950351D02*
X140416667Y-91855113D01*
X140416667Y-91855113D02*
X140464286Y-91807494D01*
X140464286Y-91807494D02*
X140559524Y-91759875D01*
X141511905Y-91759875D02*
X141607143Y-91759875D01*
X141607143Y-91759875D02*
X141702381Y-91807494D01*
X141702381Y-91807494D02*
X141750000Y-91855113D01*
X141750000Y-91855113D02*
X141797619Y-91950351D01*
X141797619Y-91950351D02*
X141845238Y-92140827D01*
X141845238Y-92140827D02*
X141845238Y-92378922D01*
X141845238Y-92378922D02*
X141797619Y-92569398D01*
X141797619Y-92569398D02*
X141750000Y-92664636D01*
X141750000Y-92664636D02*
X141702381Y-92712256D01*
X141702381Y-92712256D02*
X141607143Y-92759875D01*
X141607143Y-92759875D02*
X141511905Y-92759875D01*
X141511905Y-92759875D02*
X141416667Y-92712256D01*
X141416667Y-92712256D02*
X141369048Y-92664636D01*
X141369048Y-92664636D02*
X141321429Y-92569398D01*
X141321429Y-92569398D02*
X141273810Y-92378922D01*
X141273810Y-92378922D02*
X141273810Y-92140827D01*
X141273810Y-92140827D02*
X141321429Y-91950351D01*
X141321429Y-91950351D02*
X141369048Y-91855113D01*
X141369048Y-91855113D02*
X141416667Y-91807494D01*
X141416667Y-91807494D02*
X141511905Y-91759875D01*
X142464286Y-91759875D02*
X142559524Y-91759875D01*
X142559524Y-91759875D02*
X142654762Y-91807494D01*
X142654762Y-91807494D02*
X142702381Y-91855113D01*
X142702381Y-91855113D02*
X142750000Y-91950351D01*
X142750000Y-91950351D02*
X142797619Y-92140827D01*
X142797619Y-92140827D02*
X142797619Y-92378922D01*
X142797619Y-92378922D02*
X142750000Y-92569398D01*
X142750000Y-92569398D02*
X142702381Y-92664636D01*
X142702381Y-92664636D02*
X142654762Y-92712256D01*
X142654762Y-92712256D02*
X142559524Y-92759875D01*
X142559524Y-92759875D02*
X142464286Y-92759875D01*
X142464286Y-92759875D02*
X142369048Y-92712256D01*
X142369048Y-92712256D02*
X142321429Y-92664636D01*
X142321429Y-92664636D02*
X142273810Y-92569398D01*
X142273810Y-92569398D02*
X142226191Y-92378922D01*
X142226191Y-92378922D02*
X142226191Y-92140827D01*
X142226191Y-92140827D02*
X142273810Y-91950351D01*
X142273810Y-91950351D02*
X142321429Y-91855113D01*
X142321429Y-91855113D02*
X142369048Y-91807494D01*
X142369048Y-91807494D02*
X142464286Y-91759875D01*
X136797619Y-94369819D02*
X136797619Y-93369819D01*
X136797619Y-93369819D02*
X137035714Y-93369819D01*
X137035714Y-93369819D02*
X137178571Y-93417438D01*
X137178571Y-93417438D02*
X137273809Y-93512676D01*
X137273809Y-93512676D02*
X137321428Y-93607914D01*
X137321428Y-93607914D02*
X137369047Y-93798390D01*
X137369047Y-93798390D02*
X137369047Y-93941247D01*
X137369047Y-93941247D02*
X137321428Y-94131723D01*
X137321428Y-94131723D02*
X137273809Y-94226961D01*
X137273809Y-94226961D02*
X137178571Y-94322200D01*
X137178571Y-94322200D02*
X137035714Y-94369819D01*
X137035714Y-94369819D02*
X136797619Y-94369819D01*
X137797619Y-94369819D02*
X137797619Y-93703152D01*
X137797619Y-93369819D02*
X137750000Y-93417438D01*
X137750000Y-93417438D02*
X137797619Y-93465057D01*
X137797619Y-93465057D02*
X137845238Y-93417438D01*
X137845238Y-93417438D02*
X137797619Y-93369819D01*
X137797619Y-93369819D02*
X137797619Y-93465057D01*
X138226190Y-94322200D02*
X138321428Y-94369819D01*
X138321428Y-94369819D02*
X138511904Y-94369819D01*
X138511904Y-94369819D02*
X138607142Y-94322200D01*
X138607142Y-94322200D02*
X138654761Y-94226961D01*
X138654761Y-94226961D02*
X138654761Y-94179342D01*
X138654761Y-94179342D02*
X138607142Y-94084104D01*
X138607142Y-94084104D02*
X138511904Y-94036485D01*
X138511904Y-94036485D02*
X138369047Y-94036485D01*
X138369047Y-94036485D02*
X138273809Y-93988866D01*
X138273809Y-93988866D02*
X138226190Y-93893628D01*
X138226190Y-93893628D02*
X138226190Y-93846009D01*
X138226190Y-93846009D02*
X138273809Y-93750771D01*
X138273809Y-93750771D02*
X138369047Y-93703152D01*
X138369047Y-93703152D02*
X138511904Y-93703152D01*
X138511904Y-93703152D02*
X138607142Y-93750771D01*
X139083333Y-93703152D02*
X139083333Y-94703152D01*
X139083333Y-93750771D02*
X139178571Y-93703152D01*
X139178571Y-93703152D02*
X139369047Y-93703152D01*
X139369047Y-93703152D02*
X139464285Y-93750771D01*
X139464285Y-93750771D02*
X139511904Y-93798390D01*
X139511904Y-93798390D02*
X139559523Y-93893628D01*
X139559523Y-93893628D02*
X139559523Y-94179342D01*
X139559523Y-94179342D02*
X139511904Y-94274580D01*
X139511904Y-94274580D02*
X139464285Y-94322200D01*
X139464285Y-94322200D02*
X139369047Y-94369819D01*
X139369047Y-94369819D02*
X139178571Y-94369819D01*
X139178571Y-94369819D02*
X139083333Y-94322200D01*
X140130952Y-94369819D02*
X140035714Y-94322200D01*
X140035714Y-94322200D02*
X139988095Y-94226961D01*
X139988095Y-94226961D02*
X139988095Y-93369819D01*
X140940476Y-94369819D02*
X140940476Y-93846009D01*
X140940476Y-93846009D02*
X140892857Y-93750771D01*
X140892857Y-93750771D02*
X140797619Y-93703152D01*
X140797619Y-93703152D02*
X140607143Y-93703152D01*
X140607143Y-93703152D02*
X140511905Y-93750771D01*
X140940476Y-94322200D02*
X140845238Y-94369819D01*
X140845238Y-94369819D02*
X140607143Y-94369819D01*
X140607143Y-94369819D02*
X140511905Y-94322200D01*
X140511905Y-94322200D02*
X140464286Y-94226961D01*
X140464286Y-94226961D02*
X140464286Y-94131723D01*
X140464286Y-94131723D02*
X140511905Y-94036485D01*
X140511905Y-94036485D02*
X140607143Y-93988866D01*
X140607143Y-93988866D02*
X140845238Y-93988866D01*
X140845238Y-93988866D02*
X140940476Y-93941247D01*
X141321429Y-93703152D02*
X141559524Y-94369819D01*
X141797619Y-93703152D02*
X141559524Y-94369819D01*
X141559524Y-94369819D02*
X141464286Y-94607914D01*
X141464286Y-94607914D02*
X141416667Y-94655533D01*
X141416667Y-94655533D02*
X141321429Y-94703152D01*
D11*
X81911653Y-138470996D02*
X81411653Y-137756710D01*
X81054510Y-138470996D02*
X81054510Y-136970996D01*
X81054510Y-136970996D02*
X81625939Y-136970996D01*
X81625939Y-136970996D02*
X81768796Y-137042425D01*
X81768796Y-137042425D02*
X81840225Y-137113853D01*
X81840225Y-137113853D02*
X81911653Y-137256710D01*
X81911653Y-137256710D02*
X81911653Y-137470996D01*
X81911653Y-137470996D02*
X81840225Y-137613853D01*
X81840225Y-137613853D02*
X81768796Y-137685282D01*
X81768796Y-137685282D02*
X81625939Y-137756710D01*
X81625939Y-137756710D02*
X81054510Y-137756710D01*
X83125939Y-138399568D02*
X82983082Y-138470996D01*
X82983082Y-138470996D02*
X82697368Y-138470996D01*
X82697368Y-138470996D02*
X82554510Y-138399568D01*
X82554510Y-138399568D02*
X82483082Y-138256710D01*
X82483082Y-138256710D02*
X82483082Y-137685282D01*
X82483082Y-137685282D02*
X82554510Y-137542425D01*
X82554510Y-137542425D02*
X82697368Y-137470996D01*
X82697368Y-137470996D02*
X82983082Y-137470996D01*
X82983082Y-137470996D02*
X83125939Y-137542425D01*
X83125939Y-137542425D02*
X83197368Y-137685282D01*
X83197368Y-137685282D02*
X83197368Y-137828139D01*
X83197368Y-137828139D02*
X82483082Y-137970996D01*
X83697367Y-137470996D02*
X84054510Y-138470996D01*
X84054510Y-138470996D02*
X84411653Y-137470996D01*
X84983081Y-138328139D02*
X85054510Y-138399568D01*
X85054510Y-138399568D02*
X84983081Y-138470996D01*
X84983081Y-138470996D02*
X84911653Y-138399568D01*
X84911653Y-138399568D02*
X84983081Y-138328139D01*
X84983081Y-138328139D02*
X84983081Y-138470996D01*
X85697367Y-138328139D02*
X85768796Y-138399568D01*
X85768796Y-138399568D02*
X85697367Y-138470996D01*
X85697367Y-138470996D02*
X85625939Y-138399568D01*
X85625939Y-138399568D02*
X85697367Y-138328139D01*
X85697367Y-138328139D02*
X85697367Y-138470996D01*
X85697367Y-137542425D02*
X85768796Y-137613853D01*
X85768796Y-137613853D02*
X85697367Y-137685282D01*
X85697367Y-137685282D02*
X85625939Y-137613853D01*
X85625939Y-137613853D02*
X85697367Y-137542425D01*
X85697367Y-137542425D02*
X85697367Y-137685282D01*
X87483082Y-137113853D02*
X87554510Y-137042425D01*
X87554510Y-137042425D02*
X87697368Y-136970996D01*
X87697368Y-136970996D02*
X88054510Y-136970996D01*
X88054510Y-136970996D02*
X88197368Y-137042425D01*
X88197368Y-137042425D02*
X88268796Y-137113853D01*
X88268796Y-137113853D02*
X88340225Y-137256710D01*
X88340225Y-137256710D02*
X88340225Y-137399568D01*
X88340225Y-137399568D02*
X88268796Y-137613853D01*
X88268796Y-137613853D02*
X87411653Y-138470996D01*
X87411653Y-138470996D02*
X88340225Y-138470996D01*
X88983081Y-138328139D02*
X89054510Y-138399568D01*
X89054510Y-138399568D02*
X88983081Y-138470996D01*
X88983081Y-138470996D02*
X88911653Y-138399568D01*
X88911653Y-138399568D02*
X88983081Y-138328139D01*
X88983081Y-138328139D02*
X88983081Y-138470996D01*
X89983082Y-136970996D02*
X90125939Y-136970996D01*
X90125939Y-136970996D02*
X90268796Y-137042425D01*
X90268796Y-137042425D02*
X90340225Y-137113853D01*
X90340225Y-137113853D02*
X90411653Y-137256710D01*
X90411653Y-137256710D02*
X90483082Y-137542425D01*
X90483082Y-137542425D02*
X90483082Y-137899568D01*
X90483082Y-137899568D02*
X90411653Y-138185282D01*
X90411653Y-138185282D02*
X90340225Y-138328139D01*
X90340225Y-138328139D02*
X90268796Y-138399568D01*
X90268796Y-138399568D02*
X90125939Y-138470996D01*
X90125939Y-138470996D02*
X89983082Y-138470996D01*
X89983082Y-138470996D02*
X89840225Y-138399568D01*
X89840225Y-138399568D02*
X89768796Y-138328139D01*
X89768796Y-138328139D02*
X89697367Y-138185282D01*
X89697367Y-138185282D02*
X89625939Y-137899568D01*
X89625939Y-137899568D02*
X89625939Y-137542425D01*
X89625939Y-137542425D02*
X89697367Y-137256710D01*
X89697367Y-137256710D02*
X89768796Y-137113853D01*
X89768796Y-137113853D02*
X89840225Y-137042425D01*
X89840225Y-137042425D02*
X89983082Y-136970996D01*
X91125938Y-138328139D02*
X91197367Y-138399568D01*
X91197367Y-138399568D02*
X91125938Y-138470996D01*
X91125938Y-138470996D02*
X91054510Y-138399568D01*
X91054510Y-138399568D02*
X91125938Y-138328139D01*
X91125938Y-138328139D02*
X91125938Y-138470996D01*
X92625939Y-138470996D02*
X91768796Y-138470996D01*
X92197367Y-138470996D02*
X92197367Y-136970996D01*
X92197367Y-136970996D02*
X92054510Y-137185282D01*
X92054510Y-137185282D02*
X91911653Y-137328139D01*
X91911653Y-137328139D02*
X91768796Y-137399568D01*
X80911653Y-139385912D02*
X81268796Y-140885912D01*
X81268796Y-140885912D02*
X81554510Y-139814484D01*
X81554510Y-139814484D02*
X81840225Y-140885912D01*
X81840225Y-140885912D02*
X82197368Y-139385912D01*
X83411654Y-140885912D02*
X83411654Y-140100198D01*
X83411654Y-140100198D02*
X83340225Y-139957341D01*
X83340225Y-139957341D02*
X83197368Y-139885912D01*
X83197368Y-139885912D02*
X82911654Y-139885912D01*
X82911654Y-139885912D02*
X82768796Y-139957341D01*
X83411654Y-140814484D02*
X83268796Y-140885912D01*
X83268796Y-140885912D02*
X82911654Y-140885912D01*
X82911654Y-140885912D02*
X82768796Y-140814484D01*
X82768796Y-140814484D02*
X82697368Y-140671626D01*
X82697368Y-140671626D02*
X82697368Y-140528769D01*
X82697368Y-140528769D02*
X82768796Y-140385912D01*
X82768796Y-140385912D02*
X82911654Y-140314484D01*
X82911654Y-140314484D02*
X83268796Y-140314484D01*
X83268796Y-140314484D02*
X83411654Y-140243055D01*
X83983082Y-139885912D02*
X84340225Y-140885912D01*
X84340225Y-140885912D02*
X84697368Y-139885912D01*
X85268796Y-140885912D02*
X85268796Y-139885912D01*
X85268796Y-139385912D02*
X85197368Y-139457341D01*
X85197368Y-139457341D02*
X85268796Y-139528769D01*
X85268796Y-139528769D02*
X85340225Y-139457341D01*
X85340225Y-139457341D02*
X85268796Y-139385912D01*
X85268796Y-139385912D02*
X85268796Y-139528769D01*
X85983082Y-139885912D02*
X85983082Y-140885912D01*
X85983082Y-140028769D02*
X86054511Y-139957341D01*
X86054511Y-139957341D02*
X86197368Y-139885912D01*
X86197368Y-139885912D02*
X86411654Y-139885912D01*
X86411654Y-139885912D02*
X86554511Y-139957341D01*
X86554511Y-139957341D02*
X86625940Y-140100198D01*
X86625940Y-140100198D02*
X86625940Y-140885912D01*
X88411654Y-140457341D02*
X89125940Y-140457341D01*
X88268797Y-140885912D02*
X88768797Y-139385912D01*
X88768797Y-139385912D02*
X89268797Y-140885912D01*
X89768796Y-140885912D02*
X89768796Y-139385912D01*
X89768796Y-140100198D02*
X90625939Y-140100198D01*
X90625939Y-140885912D02*
X90625939Y-139385912D01*
X92197368Y-140743055D02*
X92125940Y-140814484D01*
X92125940Y-140814484D02*
X91911654Y-140885912D01*
X91911654Y-140885912D02*
X91768797Y-140885912D01*
X91768797Y-140885912D02*
X91554511Y-140814484D01*
X91554511Y-140814484D02*
X91411654Y-140671626D01*
X91411654Y-140671626D02*
X91340225Y-140528769D01*
X91340225Y-140528769D02*
X91268797Y-140243055D01*
X91268797Y-140243055D02*
X91268797Y-140028769D01*
X91268797Y-140028769D02*
X91340225Y-139743055D01*
X91340225Y-139743055D02*
X91411654Y-139600198D01*
X91411654Y-139600198D02*
X91554511Y-139457341D01*
X91554511Y-139457341D02*
X91768797Y-139385912D01*
X91768797Y-139385912D02*
X91911654Y-139385912D01*
X91911654Y-139385912D02*
X92125940Y-139457341D01*
X92125940Y-139457341D02*
X92197368Y-139528769D01*
X94054511Y-140885912D02*
X94340225Y-140885912D01*
X94340225Y-140885912D02*
X94483082Y-140814484D01*
X94483082Y-140814484D02*
X94554511Y-140743055D01*
X94554511Y-140743055D02*
X94697368Y-140528769D01*
X94697368Y-140528769D02*
X94768797Y-140243055D01*
X94768797Y-140243055D02*
X94768797Y-139671626D01*
X94768797Y-139671626D02*
X94697368Y-139528769D01*
X94697368Y-139528769D02*
X94625940Y-139457341D01*
X94625940Y-139457341D02*
X94483082Y-139385912D01*
X94483082Y-139385912D02*
X94197368Y-139385912D01*
X94197368Y-139385912D02*
X94054511Y-139457341D01*
X94054511Y-139457341D02*
X93983082Y-139528769D01*
X93983082Y-139528769D02*
X93911654Y-139671626D01*
X93911654Y-139671626D02*
X93911654Y-140028769D01*
X93911654Y-140028769D02*
X93983082Y-140171626D01*
X93983082Y-140171626D02*
X94054511Y-140243055D01*
X94054511Y-140243055D02*
X94197368Y-140314484D01*
X94197368Y-140314484D02*
X94483082Y-140314484D01*
X94483082Y-140314484D02*
X94625940Y-140243055D01*
X94625940Y-140243055D02*
X94697368Y-140171626D01*
X94697368Y-140171626D02*
X94768797Y-140028769D01*
X95697368Y-139385912D02*
X95840225Y-139385912D01*
X95840225Y-139385912D02*
X95983082Y-139457341D01*
X95983082Y-139457341D02*
X96054511Y-139528769D01*
X96054511Y-139528769D02*
X96125939Y-139671626D01*
X96125939Y-139671626D02*
X96197368Y-139957341D01*
X96197368Y-139957341D02*
X96197368Y-140314484D01*
X96197368Y-140314484D02*
X96125939Y-140600198D01*
X96125939Y-140600198D02*
X96054511Y-140743055D01*
X96054511Y-140743055D02*
X95983082Y-140814484D01*
X95983082Y-140814484D02*
X95840225Y-140885912D01*
X95840225Y-140885912D02*
X95697368Y-140885912D01*
X95697368Y-140885912D02*
X95554511Y-140814484D01*
X95554511Y-140814484D02*
X95483082Y-140743055D01*
X95483082Y-140743055D02*
X95411653Y-140600198D01*
X95411653Y-140600198D02*
X95340225Y-140314484D01*
X95340225Y-140314484D02*
X95340225Y-139957341D01*
X95340225Y-139957341D02*
X95411653Y-139671626D01*
X95411653Y-139671626D02*
X95483082Y-139528769D01*
X95483082Y-139528769D02*
X95554511Y-139457341D01*
X95554511Y-139457341D02*
X95697368Y-139385912D01*
X97125939Y-139385912D02*
X97268796Y-139385912D01*
X97268796Y-139385912D02*
X97411653Y-139457341D01*
X97411653Y-139457341D02*
X97483082Y-139528769D01*
X97483082Y-139528769D02*
X97554510Y-139671626D01*
X97554510Y-139671626D02*
X97625939Y-139957341D01*
X97625939Y-139957341D02*
X97625939Y-140314484D01*
X97625939Y-140314484D02*
X97554510Y-140600198D01*
X97554510Y-140600198D02*
X97483082Y-140743055D01*
X97483082Y-140743055D02*
X97411653Y-140814484D01*
X97411653Y-140814484D02*
X97268796Y-140885912D01*
X97268796Y-140885912D02*
X97125939Y-140885912D01*
X97125939Y-140885912D02*
X96983082Y-140814484D01*
X96983082Y-140814484D02*
X96911653Y-140743055D01*
X96911653Y-140743055D02*
X96840224Y-140600198D01*
X96840224Y-140600198D02*
X96768796Y-140314484D01*
X96768796Y-140314484D02*
X96768796Y-139957341D01*
X96768796Y-139957341D02*
X96840224Y-139671626D01*
X96840224Y-139671626D02*
X96911653Y-139528769D01*
X96911653Y-139528769D02*
X96983082Y-139457341D01*
X96983082Y-139457341D02*
X97125939Y-139385912D01*
X98554510Y-139385912D02*
X98697367Y-139385912D01*
X98697367Y-139385912D02*
X98840224Y-139457341D01*
X98840224Y-139457341D02*
X98911653Y-139528769D01*
X98911653Y-139528769D02*
X98983081Y-139671626D01*
X98983081Y-139671626D02*
X99054510Y-139957341D01*
X99054510Y-139957341D02*
X99054510Y-140314484D01*
X99054510Y-140314484D02*
X98983081Y-140600198D01*
X98983081Y-140600198D02*
X98911653Y-140743055D01*
X98911653Y-140743055D02*
X98840224Y-140814484D01*
X98840224Y-140814484D02*
X98697367Y-140885912D01*
X98697367Y-140885912D02*
X98554510Y-140885912D01*
X98554510Y-140885912D02*
X98411653Y-140814484D01*
X98411653Y-140814484D02*
X98340224Y-140743055D01*
X98340224Y-140743055D02*
X98268795Y-140600198D01*
X98268795Y-140600198D02*
X98197367Y-140314484D01*
X98197367Y-140314484D02*
X98197367Y-139957341D01*
X98197367Y-139957341D02*
X98268795Y-139671626D01*
X98268795Y-139671626D02*
X98340224Y-139528769D01*
X98340224Y-139528769D02*
X98411653Y-139457341D01*
X98411653Y-139457341D02*
X98554510Y-139385912D01*
X100840223Y-140885912D02*
X100840223Y-139385912D01*
X100840223Y-139385912D02*
X101340223Y-140457341D01*
X101340223Y-140457341D02*
X101840223Y-139385912D01*
X101840223Y-139385912D02*
X101840223Y-140885912D01*
X103554509Y-141028769D02*
X103411652Y-140957341D01*
X103411652Y-140957341D02*
X103268795Y-140814484D01*
X103268795Y-140814484D02*
X103054509Y-140600198D01*
X103054509Y-140600198D02*
X102911652Y-140528769D01*
X102911652Y-140528769D02*
X102768795Y-140528769D01*
X102840224Y-140885912D02*
X102697367Y-140814484D01*
X102697367Y-140814484D02*
X102554509Y-140671626D01*
X102554509Y-140671626D02*
X102483081Y-140385912D01*
X102483081Y-140385912D02*
X102483081Y-139885912D01*
X102483081Y-139885912D02*
X102554509Y-139600198D01*
X102554509Y-139600198D02*
X102697367Y-139457341D01*
X102697367Y-139457341D02*
X102840224Y-139385912D01*
X102840224Y-139385912D02*
X103125938Y-139385912D01*
X103125938Y-139385912D02*
X103268795Y-139457341D01*
X103268795Y-139457341D02*
X103411652Y-139600198D01*
X103411652Y-139600198D02*
X103483081Y-139885912D01*
X103483081Y-139885912D02*
X103483081Y-140385912D01*
X103483081Y-140385912D02*
X103411652Y-140671626D01*
X103411652Y-140671626D02*
X103268795Y-140814484D01*
X103268795Y-140814484D02*
X103125938Y-140885912D01*
X103125938Y-140885912D02*
X102840224Y-140885912D01*
X103911653Y-139385912D02*
X104768796Y-139385912D01*
X104340224Y-140885912D02*
X104340224Y-139385912D01*
X105054510Y-139385912D02*
X105911653Y-139385912D01*
X105483081Y-140885912D02*
X105483081Y-139385912D01*
X107554509Y-140885912D02*
X107554509Y-139885912D01*
X107554509Y-139385912D02*
X107483081Y-139457341D01*
X107483081Y-139457341D02*
X107554509Y-139528769D01*
X107554509Y-139528769D02*
X107625938Y-139457341D01*
X107625938Y-139457341D02*
X107554509Y-139385912D01*
X107554509Y-139385912D02*
X107554509Y-139528769D01*
X108268795Y-139885912D02*
X108268795Y-140885912D01*
X108268795Y-140028769D02*
X108340224Y-139957341D01*
X108340224Y-139957341D02*
X108483081Y-139885912D01*
X108483081Y-139885912D02*
X108697367Y-139885912D01*
X108697367Y-139885912D02*
X108840224Y-139957341D01*
X108840224Y-139957341D02*
X108911653Y-140100198D01*
X108911653Y-140100198D02*
X108911653Y-140885912D01*
X109411653Y-139885912D02*
X109983081Y-139885912D01*
X109625938Y-139385912D02*
X109625938Y-140671626D01*
X109625938Y-140671626D02*
X109697367Y-140814484D01*
X109697367Y-140814484D02*
X109840224Y-140885912D01*
X109840224Y-140885912D02*
X109983081Y-140885912D01*
X111054510Y-140814484D02*
X110911653Y-140885912D01*
X110911653Y-140885912D02*
X110625939Y-140885912D01*
X110625939Y-140885912D02*
X110483081Y-140814484D01*
X110483081Y-140814484D02*
X110411653Y-140671626D01*
X110411653Y-140671626D02*
X110411653Y-140100198D01*
X110411653Y-140100198D02*
X110483081Y-139957341D01*
X110483081Y-139957341D02*
X110625939Y-139885912D01*
X110625939Y-139885912D02*
X110911653Y-139885912D01*
X110911653Y-139885912D02*
X111054510Y-139957341D01*
X111054510Y-139957341D02*
X111125939Y-140100198D01*
X111125939Y-140100198D02*
X111125939Y-140243055D01*
X111125939Y-140243055D02*
X110411653Y-140385912D01*
X111768795Y-140885912D02*
X111768795Y-139885912D01*
X111768795Y-140171626D02*
X111840224Y-140028769D01*
X111840224Y-140028769D02*
X111911653Y-139957341D01*
X111911653Y-139957341D02*
X112054510Y-139885912D01*
X112054510Y-139885912D02*
X112197367Y-139885912D01*
X112483081Y-139885912D02*
X113054509Y-139885912D01*
X112697366Y-140885912D02*
X112697366Y-139600198D01*
X112697366Y-139600198D02*
X112768795Y-139457341D01*
X112768795Y-139457341D02*
X112911652Y-139385912D01*
X112911652Y-139385912D02*
X113054509Y-139385912D01*
X114197367Y-140885912D02*
X114197367Y-140100198D01*
X114197367Y-140100198D02*
X114125938Y-139957341D01*
X114125938Y-139957341D02*
X113983081Y-139885912D01*
X113983081Y-139885912D02*
X113697367Y-139885912D01*
X113697367Y-139885912D02*
X113554509Y-139957341D01*
X114197367Y-140814484D02*
X114054509Y-140885912D01*
X114054509Y-140885912D02*
X113697367Y-140885912D01*
X113697367Y-140885912D02*
X113554509Y-140814484D01*
X113554509Y-140814484D02*
X113483081Y-140671626D01*
X113483081Y-140671626D02*
X113483081Y-140528769D01*
X113483081Y-140528769D02*
X113554509Y-140385912D01*
X113554509Y-140385912D02*
X113697367Y-140314484D01*
X113697367Y-140314484D02*
X114054509Y-140314484D01*
X114054509Y-140314484D02*
X114197367Y-140243055D01*
X115554510Y-140885912D02*
X115554510Y-139385912D01*
X115554510Y-140814484D02*
X115411652Y-140885912D01*
X115411652Y-140885912D02*
X115125938Y-140885912D01*
X115125938Y-140885912D02*
X114983081Y-140814484D01*
X114983081Y-140814484D02*
X114911652Y-140743055D01*
X114911652Y-140743055D02*
X114840224Y-140600198D01*
X114840224Y-140600198D02*
X114840224Y-140171626D01*
X114840224Y-140171626D02*
X114911652Y-140028769D01*
X114911652Y-140028769D02*
X114983081Y-139957341D01*
X114983081Y-139957341D02*
X115125938Y-139885912D01*
X115125938Y-139885912D02*
X115411652Y-139885912D01*
X115411652Y-139885912D02*
X115554510Y-139957341D01*
X116840224Y-140814484D02*
X116697367Y-140885912D01*
X116697367Y-140885912D02*
X116411653Y-140885912D01*
X116411653Y-140885912D02*
X116268795Y-140814484D01*
X116268795Y-140814484D02*
X116197367Y-140671626D01*
X116197367Y-140671626D02*
X116197367Y-140100198D01*
X116197367Y-140100198D02*
X116268795Y-139957341D01*
X116268795Y-139957341D02*
X116411653Y-139885912D01*
X116411653Y-139885912D02*
X116697367Y-139885912D01*
X116697367Y-139885912D02*
X116840224Y-139957341D01*
X116840224Y-139957341D02*
X116911653Y-140100198D01*
X116911653Y-140100198D02*
X116911653Y-140243055D01*
X116911653Y-140243055D02*
X116197367Y-140385912D01*
X81054510Y-142515114D02*
X81554510Y-142515114D01*
X81768796Y-143300828D02*
X81054510Y-143300828D01*
X81054510Y-143300828D02*
X81054510Y-141800828D01*
X81054510Y-141800828D02*
X81768796Y-141800828D01*
X82625939Y-143300828D02*
X82483082Y-143229400D01*
X82483082Y-143229400D02*
X82411653Y-143086542D01*
X82411653Y-143086542D02*
X82411653Y-141800828D01*
X83197367Y-142729400D02*
X84340225Y-142729400D01*
X84840225Y-141800828D02*
X85697368Y-141800828D01*
X85268796Y-143300828D02*
X85268796Y-141800828D01*
X86768796Y-143229400D02*
X86625939Y-143300828D01*
X86625939Y-143300828D02*
X86340225Y-143300828D01*
X86340225Y-143300828D02*
X86197367Y-143229400D01*
X86197367Y-143229400D02*
X86125939Y-143086542D01*
X86125939Y-143086542D02*
X86125939Y-142515114D01*
X86125939Y-142515114D02*
X86197367Y-142372257D01*
X86197367Y-142372257D02*
X86340225Y-142300828D01*
X86340225Y-142300828D02*
X86625939Y-142300828D01*
X86625939Y-142300828D02*
X86768796Y-142372257D01*
X86768796Y-142372257D02*
X86840225Y-142515114D01*
X86840225Y-142515114D02*
X86840225Y-142657971D01*
X86840225Y-142657971D02*
X86125939Y-142800828D01*
X87483081Y-143300828D02*
X87483081Y-141800828D01*
X87625939Y-142729400D02*
X88054510Y-143300828D01*
X88054510Y-142300828D02*
X87483081Y-142872257D01*
X89625939Y-141800828D02*
X90483082Y-141800828D01*
X90054510Y-143300828D02*
X90054510Y-141800828D01*
X91554510Y-143229400D02*
X91411653Y-143300828D01*
X91411653Y-143300828D02*
X91125939Y-143300828D01*
X91125939Y-143300828D02*
X90983081Y-143229400D01*
X90983081Y-143229400D02*
X90911653Y-143086542D01*
X90911653Y-143086542D02*
X90911653Y-142515114D01*
X90911653Y-142515114D02*
X90983081Y-142372257D01*
X90983081Y-142372257D02*
X91125939Y-142300828D01*
X91125939Y-142300828D02*
X91411653Y-142300828D01*
X91411653Y-142300828D02*
X91554510Y-142372257D01*
X91554510Y-142372257D02*
X91625939Y-142515114D01*
X91625939Y-142515114D02*
X91625939Y-142657971D01*
X91625939Y-142657971D02*
X90911653Y-142800828D01*
X92268795Y-143300828D02*
X92268795Y-141800828D01*
X92411653Y-142729400D02*
X92840224Y-143300828D01*
X92840224Y-142300828D02*
X92268795Y-142872257D01*
X93483081Y-142300828D02*
X93483081Y-143300828D01*
X93483081Y-142443685D02*
X93554510Y-142372257D01*
X93554510Y-142372257D02*
X93697367Y-142300828D01*
X93697367Y-142300828D02*
X93911653Y-142300828D01*
X93911653Y-142300828D02*
X94054510Y-142372257D01*
X94054510Y-142372257D02*
X94125939Y-142515114D01*
X94125939Y-142515114D02*
X94125939Y-143300828D01*
X94840224Y-143300828D02*
X94840224Y-142300828D01*
X94840224Y-141800828D02*
X94768796Y-141872257D01*
X94768796Y-141872257D02*
X94840224Y-141943685D01*
X94840224Y-141943685D02*
X94911653Y-141872257D01*
X94911653Y-141872257D02*
X94840224Y-141800828D01*
X94840224Y-141800828D02*
X94840224Y-141943685D01*
X95554510Y-143300828D02*
X95554510Y-141800828D01*
X95697368Y-142729400D02*
X96125939Y-143300828D01*
X96125939Y-142300828D02*
X95554510Y-142872257D01*
X97911653Y-142729400D02*
X99054511Y-142729400D01*
X100911653Y-143300828D02*
X100911653Y-141800828D01*
X100911653Y-141800828D02*
X101268796Y-141800828D01*
X101268796Y-141800828D02*
X101483082Y-141872257D01*
X101483082Y-141872257D02*
X101625939Y-142015114D01*
X101625939Y-142015114D02*
X101697368Y-142157971D01*
X101697368Y-142157971D02*
X101768796Y-142443685D01*
X101768796Y-142443685D02*
X101768796Y-142657971D01*
X101768796Y-142657971D02*
X101697368Y-142943685D01*
X101697368Y-142943685D02*
X101625939Y-143086542D01*
X101625939Y-143086542D02*
X101483082Y-143229400D01*
X101483082Y-143229400D02*
X101268796Y-143300828D01*
X101268796Y-143300828D02*
X100911653Y-143300828D01*
X103054511Y-143300828D02*
X103054511Y-142515114D01*
X103054511Y-142515114D02*
X102983082Y-142372257D01*
X102983082Y-142372257D02*
X102840225Y-142300828D01*
X102840225Y-142300828D02*
X102554511Y-142300828D01*
X102554511Y-142300828D02*
X102411653Y-142372257D01*
X103054511Y-143229400D02*
X102911653Y-143300828D01*
X102911653Y-143300828D02*
X102554511Y-143300828D01*
X102554511Y-143300828D02*
X102411653Y-143229400D01*
X102411653Y-143229400D02*
X102340225Y-143086542D01*
X102340225Y-143086542D02*
X102340225Y-142943685D01*
X102340225Y-142943685D02*
X102411653Y-142800828D01*
X102411653Y-142800828D02*
X102554511Y-142729400D01*
X102554511Y-142729400D02*
X102911653Y-142729400D01*
X102911653Y-142729400D02*
X103054511Y-142657971D01*
X103768796Y-143300828D02*
X103768796Y-142300828D01*
X103768796Y-142443685D02*
X103840225Y-142372257D01*
X103840225Y-142372257D02*
X103983082Y-142300828D01*
X103983082Y-142300828D02*
X104197368Y-142300828D01*
X104197368Y-142300828D02*
X104340225Y-142372257D01*
X104340225Y-142372257D02*
X104411654Y-142515114D01*
X104411654Y-142515114D02*
X104411654Y-143300828D01*
X104411654Y-142515114D02*
X104483082Y-142372257D01*
X104483082Y-142372257D02*
X104625939Y-142300828D01*
X104625939Y-142300828D02*
X104840225Y-142300828D01*
X104840225Y-142300828D02*
X104983082Y-142372257D01*
X104983082Y-142372257D02*
X105054511Y-142515114D01*
X105054511Y-142515114D02*
X105054511Y-143300828D01*
X105768796Y-142300828D02*
X105768796Y-143800828D01*
X105768796Y-142372257D02*
X105911654Y-142300828D01*
X105911654Y-142300828D02*
X106197368Y-142300828D01*
X106197368Y-142300828D02*
X106340225Y-142372257D01*
X106340225Y-142372257D02*
X106411654Y-142443685D01*
X106411654Y-142443685D02*
X106483082Y-142586542D01*
X106483082Y-142586542D02*
X106483082Y-143015114D01*
X106483082Y-143015114D02*
X106411654Y-143157971D01*
X106411654Y-143157971D02*
X106340225Y-143229400D01*
X106340225Y-143229400D02*
X106197368Y-143300828D01*
X106197368Y-143300828D02*
X105911654Y-143300828D01*
X105911654Y-143300828D02*
X105768796Y-143229400D01*
X107054511Y-143229400D02*
X107197368Y-143300828D01*
X107197368Y-143300828D02*
X107483082Y-143300828D01*
X107483082Y-143300828D02*
X107625939Y-143229400D01*
X107625939Y-143229400D02*
X107697368Y-143086542D01*
X107697368Y-143086542D02*
X107697368Y-143015114D01*
X107697368Y-143015114D02*
X107625939Y-142872257D01*
X107625939Y-142872257D02*
X107483082Y-142800828D01*
X107483082Y-142800828D02*
X107268797Y-142800828D01*
X107268797Y-142800828D02*
X107125939Y-142729400D01*
X107125939Y-142729400D02*
X107054511Y-142586542D01*
X107054511Y-142586542D02*
X107054511Y-142515114D01*
X107054511Y-142515114D02*
X107125939Y-142372257D01*
X107125939Y-142372257D02*
X107268797Y-142300828D01*
X107268797Y-142300828D02*
X107483082Y-142300828D01*
X107483082Y-142300828D02*
X107625939Y-142372257D01*
X108340225Y-143300828D02*
X108340225Y-141800828D01*
X108483083Y-142729400D02*
X108911654Y-143300828D01*
X108911654Y-142300828D02*
X108340225Y-142872257D01*
X109554511Y-143300828D02*
X109554511Y-142300828D01*
X109554511Y-141800828D02*
X109483083Y-141872257D01*
X109483083Y-141872257D02*
X109554511Y-141943685D01*
X109554511Y-141943685D02*
X109625940Y-141872257D01*
X109625940Y-141872257D02*
X109554511Y-141800828D01*
X109554511Y-141800828D02*
X109554511Y-141943685D01*
X110268797Y-143300828D02*
X110268797Y-141800828D01*
X110268797Y-142372257D02*
X110411655Y-142300828D01*
X110411655Y-142300828D02*
X110697369Y-142300828D01*
X110697369Y-142300828D02*
X110840226Y-142372257D01*
X110840226Y-142372257D02*
X110911655Y-142443685D01*
X110911655Y-142443685D02*
X110983083Y-142586542D01*
X110983083Y-142586542D02*
X110983083Y-143015114D01*
X110983083Y-143015114D02*
X110911655Y-143157971D01*
X110911655Y-143157971D02*
X110840226Y-143229400D01*
X110840226Y-143229400D02*
X110697369Y-143300828D01*
X110697369Y-143300828D02*
X110411655Y-143300828D01*
X110411655Y-143300828D02*
X110268797Y-143229400D01*
X111554512Y-143229400D02*
X111697369Y-143300828D01*
X111697369Y-143300828D02*
X111983083Y-143300828D01*
X111983083Y-143300828D02*
X112125940Y-143229400D01*
X112125940Y-143229400D02*
X112197369Y-143086542D01*
X112197369Y-143086542D02*
X112197369Y-143015114D01*
X112197369Y-143015114D02*
X112125940Y-142872257D01*
X112125940Y-142872257D02*
X111983083Y-142800828D01*
X111983083Y-142800828D02*
X111768798Y-142800828D01*
X111768798Y-142800828D02*
X111625940Y-142729400D01*
X111625940Y-142729400D02*
X111554512Y-142586542D01*
X111554512Y-142586542D02*
X111554512Y-142515114D01*
X111554512Y-142515114D02*
X111625940Y-142372257D01*
X111625940Y-142372257D02*
X111768798Y-142300828D01*
X111768798Y-142300828D02*
X111983083Y-142300828D01*
X111983083Y-142300828D02*
X112125940Y-142372257D01*
X112697369Y-142300828D02*
X113054512Y-143300828D01*
X113054512Y-143300828D02*
X113411655Y-142300828D01*
X114554512Y-143229400D02*
X114411655Y-143300828D01*
X114411655Y-143300828D02*
X114125941Y-143300828D01*
X114125941Y-143300828D02*
X113983083Y-143229400D01*
X113983083Y-143229400D02*
X113911655Y-143086542D01*
X113911655Y-143086542D02*
X113911655Y-142515114D01*
X113911655Y-142515114D02*
X113983083Y-142372257D01*
X113983083Y-142372257D02*
X114125941Y-142300828D01*
X114125941Y-142300828D02*
X114411655Y-142300828D01*
X114411655Y-142300828D02*
X114554512Y-142372257D01*
X114554512Y-142372257D02*
X114625941Y-142515114D01*
X114625941Y-142515114D02*
X114625941Y-142657971D01*
X114625941Y-142657971D02*
X113911655Y-142800828D01*
X115268797Y-142300828D02*
X115268797Y-143586542D01*
X115268797Y-143586542D02*
X115197369Y-143729400D01*
X115197369Y-143729400D02*
X115054512Y-143800828D01*
X115054512Y-143800828D02*
X114983083Y-143800828D01*
X115268797Y-141800828D02*
X115197369Y-141872257D01*
X115197369Y-141872257D02*
X115268797Y-141943685D01*
X115268797Y-141943685D02*
X115340226Y-141872257D01*
X115340226Y-141872257D02*
X115268797Y-141800828D01*
X115268797Y-141800828D02*
X115268797Y-141943685D01*
X116554512Y-143229400D02*
X116411655Y-143300828D01*
X116411655Y-143300828D02*
X116125941Y-143300828D01*
X116125941Y-143300828D02*
X115983083Y-143229400D01*
X115983083Y-143229400D02*
X115911655Y-143086542D01*
X115911655Y-143086542D02*
X115911655Y-142515114D01*
X115911655Y-142515114D02*
X115983083Y-142372257D01*
X115983083Y-142372257D02*
X116125941Y-142300828D01*
X116125941Y-142300828D02*
X116411655Y-142300828D01*
X116411655Y-142300828D02*
X116554512Y-142372257D01*
X116554512Y-142372257D02*
X116625941Y-142515114D01*
X116625941Y-142515114D02*
X116625941Y-142657971D01*
X116625941Y-142657971D02*
X115911655Y-142800828D01*
X117268797Y-142300828D02*
X117268797Y-143300828D01*
X117268797Y-142443685D02*
X117340226Y-142372257D01*
X117340226Y-142372257D02*
X117483083Y-142300828D01*
X117483083Y-142300828D02*
X117697369Y-142300828D01*
X117697369Y-142300828D02*
X117840226Y-142372257D01*
X117840226Y-142372257D02*
X117911655Y-142515114D01*
X117911655Y-142515114D02*
X117911655Y-143300828D01*
X119625940Y-141800828D02*
X120625940Y-141800828D01*
X120625940Y-141800828D02*
X119983083Y-143300828D01*
X121268797Y-143229400D02*
X121268797Y-143300828D01*
X121268797Y-143300828D02*
X121197368Y-143443685D01*
X121197368Y-143443685D02*
X121125940Y-143515114D01*
X122911654Y-141800828D02*
X123911654Y-141800828D01*
X123911654Y-141800828D02*
X123268797Y-143300828D01*
X125268797Y-143300828D02*
X124411654Y-143300828D01*
X124840225Y-143300828D02*
X124840225Y-141800828D01*
X124840225Y-141800828D02*
X124697368Y-142015114D01*
X124697368Y-142015114D02*
X124554511Y-142157971D01*
X124554511Y-142157971D02*
X124411654Y-142229400D01*
X125840225Y-141943685D02*
X125911653Y-141872257D01*
X125911653Y-141872257D02*
X126054511Y-141800828D01*
X126054511Y-141800828D02*
X126411653Y-141800828D01*
X126411653Y-141800828D02*
X126554511Y-141872257D01*
X126554511Y-141872257D02*
X126625939Y-141943685D01*
X126625939Y-141943685D02*
X126697368Y-142086542D01*
X126697368Y-142086542D02*
X126697368Y-142229400D01*
X126697368Y-142229400D02*
X126625939Y-142443685D01*
X126625939Y-142443685D02*
X125768796Y-143300828D01*
X125768796Y-143300828D02*
X126697368Y-143300828D01*
X127625939Y-141800828D02*
X127768796Y-141800828D01*
X127768796Y-141800828D02*
X127911653Y-141872257D01*
X127911653Y-141872257D02*
X127983082Y-141943685D01*
X127983082Y-141943685D02*
X128054510Y-142086542D01*
X128054510Y-142086542D02*
X128125939Y-142372257D01*
X128125939Y-142372257D02*
X128125939Y-142729400D01*
X128125939Y-142729400D02*
X128054510Y-143015114D01*
X128054510Y-143015114D02*
X127983082Y-143157971D01*
X127983082Y-143157971D02*
X127911653Y-143229400D01*
X127911653Y-143229400D02*
X127768796Y-143300828D01*
X127768796Y-143300828D02*
X127625939Y-143300828D01*
X127625939Y-143300828D02*
X127483082Y-143229400D01*
X127483082Y-143229400D02*
X127411653Y-143157971D01*
X127411653Y-143157971D02*
X127340224Y-143015114D01*
X127340224Y-143015114D02*
X127268796Y-142729400D01*
X127268796Y-142729400D02*
X127268796Y-142372257D01*
X127268796Y-142372257D02*
X127340224Y-142086542D01*
X127340224Y-142086542D02*
X127411653Y-141943685D01*
X127411653Y-141943685D02*
X127483082Y-141872257D01*
X127483082Y-141872257D02*
X127625939Y-141800828D01*
X129697367Y-141800828D02*
X130197367Y-143300828D01*
X130197367Y-143300828D02*
X130697367Y-141800828D01*
X131768795Y-143229400D02*
X131625938Y-143300828D01*
X131625938Y-143300828D02*
X131340224Y-143300828D01*
X131340224Y-143300828D02*
X131197366Y-143229400D01*
X131197366Y-143229400D02*
X131125938Y-143086542D01*
X131125938Y-143086542D02*
X131125938Y-142515114D01*
X131125938Y-142515114D02*
X131197366Y-142372257D01*
X131197366Y-142372257D02*
X131340224Y-142300828D01*
X131340224Y-142300828D02*
X131625938Y-142300828D01*
X131625938Y-142300828D02*
X131768795Y-142372257D01*
X131768795Y-142372257D02*
X131840224Y-142515114D01*
X131840224Y-142515114D02*
X131840224Y-142657971D01*
X131840224Y-142657971D02*
X131125938Y-142800828D01*
X132483080Y-142300828D02*
X132483080Y-143586542D01*
X132483080Y-143586542D02*
X132411652Y-143729400D01*
X132411652Y-143729400D02*
X132268795Y-143800828D01*
X132268795Y-143800828D02*
X132197366Y-143800828D01*
X132483080Y-141800828D02*
X132411652Y-141872257D01*
X132411652Y-141872257D02*
X132483080Y-141943685D01*
X132483080Y-141943685D02*
X132554509Y-141872257D01*
X132554509Y-141872257D02*
X132483080Y-141800828D01*
X132483080Y-141800828D02*
X132483080Y-141943685D01*
X133411652Y-143300828D02*
X133268795Y-143229400D01*
X133268795Y-143229400D02*
X133197366Y-143086542D01*
X133197366Y-143086542D02*
X133197366Y-141800828D01*
X134554509Y-143229400D02*
X134411652Y-143300828D01*
X134411652Y-143300828D02*
X134125938Y-143300828D01*
X134125938Y-143300828D02*
X133983080Y-143229400D01*
X133983080Y-143229400D02*
X133911652Y-143086542D01*
X133911652Y-143086542D02*
X133911652Y-142515114D01*
X133911652Y-142515114D02*
X133983080Y-142372257D01*
X133983080Y-142372257D02*
X134125938Y-142300828D01*
X134125938Y-142300828D02*
X134411652Y-142300828D01*
X134411652Y-142300828D02*
X134554509Y-142372257D01*
X134554509Y-142372257D02*
X134625938Y-142515114D01*
X134625938Y-142515114D02*
X134625938Y-142657971D01*
X134625938Y-142657971D02*
X133911652Y-142800828D01*
X137411651Y-141800828D02*
X136268794Y-143300828D01*
X136697366Y-143300828D02*
X136554509Y-143229400D01*
X136554509Y-143229400D02*
X136411651Y-143086542D01*
X136411651Y-143086542D02*
X136340223Y-142800828D01*
X136340223Y-142800828D02*
X136340223Y-142300828D01*
X136340223Y-142300828D02*
X136411651Y-142015114D01*
X136411651Y-142015114D02*
X136554509Y-141872257D01*
X136554509Y-141872257D02*
X136697366Y-141800828D01*
X136697366Y-141800828D02*
X136983080Y-141800828D01*
X136983080Y-141800828D02*
X137125937Y-141872257D01*
X137125937Y-141872257D02*
X137268794Y-142015114D01*
X137268794Y-142015114D02*
X137340223Y-142300828D01*
X137340223Y-142300828D02*
X137340223Y-142800828D01*
X137340223Y-142800828D02*
X137268794Y-143086542D01*
X137268794Y-143086542D02*
X137125937Y-143229400D01*
X137125937Y-143229400D02*
X136983080Y-143300828D01*
X136983080Y-143300828D02*
X136697366Y-143300828D01*
X137911652Y-143229400D02*
X138054509Y-143300828D01*
X138054509Y-143300828D02*
X138340223Y-143300828D01*
X138340223Y-143300828D02*
X138483080Y-143229400D01*
X138483080Y-143229400D02*
X138554509Y-143086542D01*
X138554509Y-143086542D02*
X138554509Y-143015114D01*
X138554509Y-143015114D02*
X138483080Y-142872257D01*
X138483080Y-142872257D02*
X138340223Y-142800828D01*
X138340223Y-142800828D02*
X138125938Y-142800828D01*
X138125938Y-142800828D02*
X137983080Y-142729400D01*
X137983080Y-142729400D02*
X137911652Y-142586542D01*
X137911652Y-142586542D02*
X137911652Y-142515114D01*
X137911652Y-142515114D02*
X137983080Y-142372257D01*
X137983080Y-142372257D02*
X138125938Y-142300828D01*
X138125938Y-142300828D02*
X138340223Y-142300828D01*
X138340223Y-142300828D02*
X138483080Y-142372257D01*
X138983081Y-142300828D02*
X139554509Y-142300828D01*
X139197366Y-141800828D02*
X139197366Y-143086542D01*
X139197366Y-143086542D02*
X139268795Y-143229400D01*
X139268795Y-143229400D02*
X139411652Y-143300828D01*
X139411652Y-143300828D02*
X139554509Y-143300828D01*
D10*
X146666666Y-91704819D02*
X146666666Y-92419104D01*
X146666666Y-92419104D02*
X146619047Y-92561961D01*
X146619047Y-92561961D02*
X146523809Y-92657200D01*
X146523809Y-92657200D02*
X146380952Y-92704819D01*
X146380952Y-92704819D02*
X146285714Y-92704819D01*
X147095238Y-91800057D02*
X147142857Y-91752438D01*
X147142857Y-91752438D02*
X147238095Y-91704819D01*
X147238095Y-91704819D02*
X147476190Y-91704819D01*
X147476190Y-91704819D02*
X147571428Y-91752438D01*
X147571428Y-91752438D02*
X147619047Y-91800057D01*
X147619047Y-91800057D02*
X147666666Y-91895295D01*
X147666666Y-91895295D02*
X147666666Y-91990533D01*
X147666666Y-91990533D02*
X147619047Y-92133390D01*
X147619047Y-92133390D02*
X147047619Y-92704819D01*
X147047619Y-92704819D02*
X147666666Y-92704819D01*
X86583333Y-118859580D02*
X86535714Y-118907200D01*
X86535714Y-118907200D02*
X86392857Y-118954819D01*
X86392857Y-118954819D02*
X86297619Y-118954819D01*
X86297619Y-118954819D02*
X86154762Y-118907200D01*
X86154762Y-118907200D02*
X86059524Y-118811961D01*
X86059524Y-118811961D02*
X86011905Y-118716723D01*
X86011905Y-118716723D02*
X85964286Y-118526247D01*
X85964286Y-118526247D02*
X85964286Y-118383390D01*
X85964286Y-118383390D02*
X86011905Y-118192914D01*
X86011905Y-118192914D02*
X86059524Y-118097676D01*
X86059524Y-118097676D02*
X86154762Y-118002438D01*
X86154762Y-118002438D02*
X86297619Y-117954819D01*
X86297619Y-117954819D02*
X86392857Y-117954819D01*
X86392857Y-117954819D02*
X86535714Y-118002438D01*
X86535714Y-118002438D02*
X86583333Y-118050057D01*
X87535714Y-118954819D02*
X86964286Y-118954819D01*
X87250000Y-118954819D02*
X87250000Y-117954819D01*
X87250000Y-117954819D02*
X87154762Y-118097676D01*
X87154762Y-118097676D02*
X87059524Y-118192914D01*
X87059524Y-118192914D02*
X86964286Y-118240533D01*
X133083333Y-94859536D02*
X133035714Y-94907156D01*
X133035714Y-94907156D02*
X132892857Y-94954775D01*
X132892857Y-94954775D02*
X132797619Y-94954775D01*
X132797619Y-94954775D02*
X132654762Y-94907156D01*
X132654762Y-94907156D02*
X132559524Y-94811917D01*
X132559524Y-94811917D02*
X132511905Y-94716679D01*
X132511905Y-94716679D02*
X132464286Y-94526203D01*
X132464286Y-94526203D02*
X132464286Y-94383346D01*
X132464286Y-94383346D02*
X132511905Y-94192870D01*
X132511905Y-94192870D02*
X132559524Y-94097632D01*
X132559524Y-94097632D02*
X132654762Y-94002394D01*
X132654762Y-94002394D02*
X132797619Y-93954775D01*
X132797619Y-93954775D02*
X132892857Y-93954775D01*
X132892857Y-93954775D02*
X133035714Y-94002394D01*
X133035714Y-94002394D02*
X133083333Y-94050013D01*
X133416667Y-93954775D02*
X134035714Y-93954775D01*
X134035714Y-93954775D02*
X133702381Y-94335727D01*
X133702381Y-94335727D02*
X133845238Y-94335727D01*
X133845238Y-94335727D02*
X133940476Y-94383346D01*
X133940476Y-94383346D02*
X133988095Y-94430965D01*
X133988095Y-94430965D02*
X134035714Y-94526203D01*
X134035714Y-94526203D02*
X134035714Y-94764298D01*
X134035714Y-94764298D02*
X133988095Y-94859536D01*
X133988095Y-94859536D02*
X133940476Y-94907156D01*
X133940476Y-94907156D02*
X133845238Y-94954775D01*
X133845238Y-94954775D02*
X133559524Y-94954775D01*
X133559524Y-94954775D02*
X133464286Y-94907156D01*
X133464286Y-94907156D02*
X133416667Y-94859536D01*
X80666666Y-92204819D02*
X80666666Y-92919104D01*
X80666666Y-92919104D02*
X80619047Y-93061961D01*
X80619047Y-93061961D02*
X80523809Y-93157200D01*
X80523809Y-93157200D02*
X80380952Y-93204819D01*
X80380952Y-93204819D02*
X80285714Y-93204819D01*
X81666666Y-93204819D02*
X81095238Y-93204819D01*
X81380952Y-93204819D02*
X81380952Y-92204819D01*
X81380952Y-92204819D02*
X81285714Y-92347676D01*
X81285714Y-92347676D02*
X81190476Y-92442914D01*
X81190476Y-92442914D02*
X81095238Y-92490533D01*
D12*
X114225904Y-82546095D02*
X114225904Y-83368572D01*
X114225904Y-83368572D02*
X114274285Y-83465334D01*
X114274285Y-83465334D02*
X114322666Y-83513715D01*
X114322666Y-83513715D02*
X114419428Y-83562095D01*
X114419428Y-83562095D02*
X114612952Y-83562095D01*
X114612952Y-83562095D02*
X114709714Y-83513715D01*
X114709714Y-83513715D02*
X114758095Y-83465334D01*
X114758095Y-83465334D02*
X114806476Y-83368572D01*
X114806476Y-83368572D02*
X114806476Y-82546095D01*
X115822476Y-83562095D02*
X115241904Y-83562095D01*
X115532190Y-83562095D02*
X115532190Y-82546095D01*
X115532190Y-82546095D02*
X115435428Y-82691238D01*
X115435428Y-82691238D02*
X115338666Y-82788000D01*
X115338666Y-82788000D02*
X115241904Y-82836381D01*
D13*
X102497984Y-79937747D02*
X102860842Y-79937747D01*
X102425413Y-80155461D02*
X102679413Y-79393461D01*
X102679413Y-79393461D02*
X102933413Y-80155461D01*
X103332556Y-79393461D02*
X103405127Y-79393461D01*
X103405127Y-79393461D02*
X103477699Y-79429747D01*
X103477699Y-79429747D02*
X103513985Y-79466033D01*
X103513985Y-79466033D02*
X103550270Y-79538604D01*
X103550270Y-79538604D02*
X103586556Y-79683747D01*
X103586556Y-79683747D02*
X103586556Y-79865176D01*
X103586556Y-79865176D02*
X103550270Y-80010318D01*
X103550270Y-80010318D02*
X103513985Y-80082890D01*
X103513985Y-80082890D02*
X103477699Y-80119176D01*
X103477699Y-80119176D02*
X103405127Y-80155461D01*
X103405127Y-80155461D02*
X103332556Y-80155461D01*
X103332556Y-80155461D02*
X103259985Y-80119176D01*
X103259985Y-80119176D02*
X103223699Y-80082890D01*
X103223699Y-80082890D02*
X103187413Y-80010318D01*
X103187413Y-80010318D02*
X103151127Y-79865176D01*
X103151127Y-79865176D02*
X103151127Y-79683747D01*
X103151127Y-79683747D02*
X103187413Y-79538604D01*
X103187413Y-79538604D02*
X103223699Y-79466033D01*
X103223699Y-79466033D02*
X103259985Y-79429747D01*
X103259985Y-79429747D02*
X103332556Y-79393461D01*
X102280270Y-107950318D02*
X102534270Y-107950318D01*
X102643127Y-108349461D02*
X102280270Y-108349461D01*
X102280270Y-108349461D02*
X102280270Y-107587461D01*
X102280270Y-107587461D02*
X102643127Y-107587461D01*
X102969699Y-108349461D02*
X102969699Y-107587461D01*
X102969699Y-107587461D02*
X103405128Y-108349461D01*
X103405128Y-108349461D02*
X103405128Y-107587461D01*
X122999413Y-102543747D02*
X122926842Y-102507461D01*
X122926842Y-102507461D02*
X122817984Y-102507461D01*
X122817984Y-102507461D02*
X122709127Y-102543747D01*
X122709127Y-102543747D02*
X122636556Y-102616318D01*
X122636556Y-102616318D02*
X122600270Y-102688890D01*
X122600270Y-102688890D02*
X122563984Y-102834033D01*
X122563984Y-102834033D02*
X122563984Y-102942890D01*
X122563984Y-102942890D02*
X122600270Y-103088033D01*
X122600270Y-103088033D02*
X122636556Y-103160604D01*
X122636556Y-103160604D02*
X122709127Y-103233176D01*
X122709127Y-103233176D02*
X122817984Y-103269461D01*
X122817984Y-103269461D02*
X122890556Y-103269461D01*
X122890556Y-103269461D02*
X122999413Y-103233176D01*
X122999413Y-103233176D02*
X123035699Y-103196890D01*
X123035699Y-103196890D02*
X123035699Y-102942890D01*
X123035699Y-102942890D02*
X122890556Y-102942890D01*
X123362270Y-103269461D02*
X123362270Y-102507461D01*
X123362270Y-102507461D02*
X123652556Y-102507461D01*
X123652556Y-102507461D02*
X123725127Y-102543747D01*
X123725127Y-102543747D02*
X123761413Y-102580033D01*
X123761413Y-102580033D02*
X123797699Y-102652604D01*
X123797699Y-102652604D02*
X123797699Y-102761461D01*
X123797699Y-102761461D02*
X123761413Y-102834033D01*
X123761413Y-102834033D02*
X123725127Y-102870318D01*
X123725127Y-102870318D02*
X123652556Y-102906604D01*
X123652556Y-102906604D02*
X123362270Y-102906604D01*
X124124270Y-103269461D02*
X124124270Y-102507461D01*
X124632270Y-102507461D02*
X124777413Y-102507461D01*
X124777413Y-102507461D02*
X124849984Y-102543747D01*
X124849984Y-102543747D02*
X124922556Y-102616318D01*
X124922556Y-102616318D02*
X124958841Y-102761461D01*
X124958841Y-102761461D02*
X124958841Y-103015461D01*
X124958841Y-103015461D02*
X124922556Y-103160604D01*
X124922556Y-103160604D02*
X124849984Y-103233176D01*
X124849984Y-103233176D02*
X124777413Y-103269461D01*
X124777413Y-103269461D02*
X124632270Y-103269461D01*
X124632270Y-103269461D02*
X124559699Y-103233176D01*
X124559699Y-103233176D02*
X124487127Y-103160604D01*
X124487127Y-103160604D02*
X124450841Y-103015461D01*
X124450841Y-103015461D02*
X124450841Y-102761461D01*
X124450841Y-102761461D02*
X124487127Y-102616318D01*
X124487127Y-102616318D02*
X124559699Y-102543747D01*
X124559699Y-102543747D02*
X124632270Y-102507461D01*
X125684556Y-103269461D02*
X125249127Y-103269461D01*
X125466842Y-103269461D02*
X125466842Y-102507461D01*
X125466842Y-102507461D02*
X125394270Y-102616318D01*
X125394270Y-102616318D02*
X125321699Y-102688890D01*
X125321699Y-102688890D02*
X125249127Y-102725176D01*
X125938556Y-102507461D02*
X126410270Y-102507461D01*
X126410270Y-102507461D02*
X126156270Y-102797747D01*
X126156270Y-102797747D02*
X126265127Y-102797747D01*
X126265127Y-102797747D02*
X126337699Y-102834033D01*
X126337699Y-102834033D02*
X126373984Y-102870318D01*
X126373984Y-102870318D02*
X126410270Y-102942890D01*
X126410270Y-102942890D02*
X126410270Y-103124318D01*
X126410270Y-103124318D02*
X126373984Y-103196890D01*
X126373984Y-103196890D02*
X126337699Y-103233176D01*
X126337699Y-103233176D02*
X126265127Y-103269461D01*
X126265127Y-103269461D02*
X126047413Y-103269461D01*
X126047413Y-103269461D02*
X125974841Y-103233176D01*
X125974841Y-103233176D02*
X125938556Y-103196890D01*
X102715699Y-95649461D02*
X102461699Y-95286604D01*
X102280270Y-95649461D02*
X102280270Y-94887461D01*
X102280270Y-94887461D02*
X102570556Y-94887461D01*
X102570556Y-94887461D02*
X102643127Y-94923747D01*
X102643127Y-94923747D02*
X102679413Y-94960033D01*
X102679413Y-94960033D02*
X102715699Y-95032604D01*
X102715699Y-95032604D02*
X102715699Y-95141461D01*
X102715699Y-95141461D02*
X102679413Y-95214033D01*
X102679413Y-95214033D02*
X102643127Y-95250318D01*
X102643127Y-95250318D02*
X102570556Y-95286604D01*
X102570556Y-95286604D02*
X102280270Y-95286604D01*
X103005984Y-95613176D02*
X103114842Y-95649461D01*
X103114842Y-95649461D02*
X103296270Y-95649461D01*
X103296270Y-95649461D02*
X103368842Y-95613176D01*
X103368842Y-95613176D02*
X103405127Y-95576890D01*
X103405127Y-95576890D02*
X103441413Y-95504318D01*
X103441413Y-95504318D02*
X103441413Y-95431747D01*
X103441413Y-95431747D02*
X103405127Y-95359176D01*
X103405127Y-95359176D02*
X103368842Y-95322890D01*
X103368842Y-95322890D02*
X103296270Y-95286604D01*
X103296270Y-95286604D02*
X103151127Y-95250318D01*
X103151127Y-95250318D02*
X103078556Y-95214033D01*
X103078556Y-95214033D02*
X103042270Y-95177747D01*
X103042270Y-95177747D02*
X103005984Y-95105176D01*
X103005984Y-95105176D02*
X103005984Y-95032604D01*
X103005984Y-95032604D02*
X103042270Y-94960033D01*
X103042270Y-94960033D02*
X103078556Y-94923747D01*
X103078556Y-94923747D02*
X103151127Y-94887461D01*
X103151127Y-94887461D02*
X103332556Y-94887461D01*
X103332556Y-94887461D02*
X103441413Y-94923747D01*
X103659127Y-94887461D02*
X103913127Y-95649461D01*
X103913127Y-95649461D02*
X104167127Y-94887461D01*
X122745413Y-97463747D02*
X122672842Y-97427461D01*
X122672842Y-97427461D02*
X122563984Y-97427461D01*
X122563984Y-97427461D02*
X122455127Y-97463747D01*
X122455127Y-97463747D02*
X122382556Y-97536318D01*
X122382556Y-97536318D02*
X122346270Y-97608890D01*
X122346270Y-97608890D02*
X122309984Y-97754033D01*
X122309984Y-97754033D02*
X122309984Y-97862890D01*
X122309984Y-97862890D02*
X122346270Y-98008033D01*
X122346270Y-98008033D02*
X122382556Y-98080604D01*
X122382556Y-98080604D02*
X122455127Y-98153176D01*
X122455127Y-98153176D02*
X122563984Y-98189461D01*
X122563984Y-98189461D02*
X122636556Y-98189461D01*
X122636556Y-98189461D02*
X122745413Y-98153176D01*
X122745413Y-98153176D02*
X122781699Y-98116890D01*
X122781699Y-98116890D02*
X122781699Y-97862890D01*
X122781699Y-97862890D02*
X122636556Y-97862890D01*
X123108270Y-98189461D02*
X123108270Y-97427461D01*
X123108270Y-97427461D02*
X123398556Y-97427461D01*
X123398556Y-97427461D02*
X123471127Y-97463747D01*
X123471127Y-97463747D02*
X123507413Y-97500033D01*
X123507413Y-97500033D02*
X123543699Y-97572604D01*
X123543699Y-97572604D02*
X123543699Y-97681461D01*
X123543699Y-97681461D02*
X123507413Y-97754033D01*
X123507413Y-97754033D02*
X123471127Y-97790318D01*
X123471127Y-97790318D02*
X123398556Y-97826604D01*
X123398556Y-97826604D02*
X123108270Y-97826604D01*
X123870270Y-98189461D02*
X123870270Y-97427461D01*
X124378270Y-97427461D02*
X124523413Y-97427461D01*
X124523413Y-97427461D02*
X124595984Y-97463747D01*
X124595984Y-97463747D02*
X124668556Y-97536318D01*
X124668556Y-97536318D02*
X124704841Y-97681461D01*
X124704841Y-97681461D02*
X124704841Y-97935461D01*
X124704841Y-97935461D02*
X124668556Y-98080604D01*
X124668556Y-98080604D02*
X124595984Y-98153176D01*
X124595984Y-98153176D02*
X124523413Y-98189461D01*
X124523413Y-98189461D02*
X124378270Y-98189461D01*
X124378270Y-98189461D02*
X124305699Y-98153176D01*
X124305699Y-98153176D02*
X124233127Y-98080604D01*
X124233127Y-98080604D02*
X124196841Y-97935461D01*
X124196841Y-97935461D02*
X124196841Y-97681461D01*
X124196841Y-97681461D02*
X124233127Y-97536318D01*
X124233127Y-97536318D02*
X124305699Y-97463747D01*
X124305699Y-97463747D02*
X124378270Y-97427461D01*
X125430556Y-98189461D02*
X124995127Y-98189461D01*
X125212842Y-98189461D02*
X125212842Y-97427461D01*
X125212842Y-97427461D02*
X125140270Y-97536318D01*
X125140270Y-97536318D02*
X125067699Y-97608890D01*
X125067699Y-97608890D02*
X124995127Y-97645176D01*
X126083699Y-97681461D02*
X126083699Y-98189461D01*
X125902270Y-97391176D02*
X125720841Y-97935461D01*
X125720841Y-97935461D02*
X126192556Y-97935461D01*
X102715699Y-93109461D02*
X102461699Y-92746604D01*
X102280270Y-93109461D02*
X102280270Y-92347461D01*
X102280270Y-92347461D02*
X102570556Y-92347461D01*
X102570556Y-92347461D02*
X102643127Y-92383747D01*
X102643127Y-92383747D02*
X102679413Y-92420033D01*
X102679413Y-92420033D02*
X102715699Y-92492604D01*
X102715699Y-92492604D02*
X102715699Y-92601461D01*
X102715699Y-92601461D02*
X102679413Y-92674033D01*
X102679413Y-92674033D02*
X102643127Y-92710318D01*
X102643127Y-92710318D02*
X102570556Y-92746604D01*
X102570556Y-92746604D02*
X102280270Y-92746604D01*
X103005984Y-93073176D02*
X103114842Y-93109461D01*
X103114842Y-93109461D02*
X103296270Y-93109461D01*
X103296270Y-93109461D02*
X103368842Y-93073176D01*
X103368842Y-93073176D02*
X103405127Y-93036890D01*
X103405127Y-93036890D02*
X103441413Y-92964318D01*
X103441413Y-92964318D02*
X103441413Y-92891747D01*
X103441413Y-92891747D02*
X103405127Y-92819176D01*
X103405127Y-92819176D02*
X103368842Y-92782890D01*
X103368842Y-92782890D02*
X103296270Y-92746604D01*
X103296270Y-92746604D02*
X103151127Y-92710318D01*
X103151127Y-92710318D02*
X103078556Y-92674033D01*
X103078556Y-92674033D02*
X103042270Y-92637747D01*
X103042270Y-92637747D02*
X103005984Y-92565176D01*
X103005984Y-92565176D02*
X103005984Y-92492604D01*
X103005984Y-92492604D02*
X103042270Y-92420033D01*
X103042270Y-92420033D02*
X103078556Y-92383747D01*
X103078556Y-92383747D02*
X103151127Y-92347461D01*
X103151127Y-92347461D02*
X103332556Y-92347461D01*
X103332556Y-92347461D02*
X103441413Y-92383747D01*
X103659127Y-92347461D02*
X103913127Y-93109461D01*
X103913127Y-93109461D02*
X104167127Y-92347461D01*
X102679413Y-97463747D02*
X102606842Y-97427461D01*
X102606842Y-97427461D02*
X102497984Y-97427461D01*
X102497984Y-97427461D02*
X102389127Y-97463747D01*
X102389127Y-97463747D02*
X102316556Y-97536318D01*
X102316556Y-97536318D02*
X102280270Y-97608890D01*
X102280270Y-97608890D02*
X102243984Y-97754033D01*
X102243984Y-97754033D02*
X102243984Y-97862890D01*
X102243984Y-97862890D02*
X102280270Y-98008033D01*
X102280270Y-98008033D02*
X102316556Y-98080604D01*
X102316556Y-98080604D02*
X102389127Y-98153176D01*
X102389127Y-98153176D02*
X102497984Y-98189461D01*
X102497984Y-98189461D02*
X102570556Y-98189461D01*
X102570556Y-98189461D02*
X102679413Y-98153176D01*
X102679413Y-98153176D02*
X102715699Y-98116890D01*
X102715699Y-98116890D02*
X102715699Y-97862890D01*
X102715699Y-97862890D02*
X102570556Y-97862890D01*
X103042270Y-98189461D02*
X103042270Y-97427461D01*
X103042270Y-97427461D02*
X103477699Y-98189461D01*
X103477699Y-98189461D02*
X103477699Y-97427461D01*
X103840556Y-98189461D02*
X103840556Y-97427461D01*
X103840556Y-97427461D02*
X104021985Y-97427461D01*
X104021985Y-97427461D02*
X104130842Y-97463747D01*
X104130842Y-97463747D02*
X104203413Y-97536318D01*
X104203413Y-97536318D02*
X104239699Y-97608890D01*
X104239699Y-97608890D02*
X104275985Y-97754033D01*
X104275985Y-97754033D02*
X104275985Y-97862890D01*
X104275985Y-97862890D02*
X104239699Y-98008033D01*
X104239699Y-98008033D02*
X104203413Y-98080604D01*
X104203413Y-98080604D02*
X104130842Y-98153176D01*
X104130842Y-98153176D02*
X104021985Y-98189461D01*
X104021985Y-98189461D02*
X103840556Y-98189461D01*
X122745413Y-105083747D02*
X122672842Y-105047461D01*
X122672842Y-105047461D02*
X122563984Y-105047461D01*
X122563984Y-105047461D02*
X122455127Y-105083747D01*
X122455127Y-105083747D02*
X122382556Y-105156318D01*
X122382556Y-105156318D02*
X122346270Y-105228890D01*
X122346270Y-105228890D02*
X122309984Y-105374033D01*
X122309984Y-105374033D02*
X122309984Y-105482890D01*
X122309984Y-105482890D02*
X122346270Y-105628033D01*
X122346270Y-105628033D02*
X122382556Y-105700604D01*
X122382556Y-105700604D02*
X122455127Y-105773176D01*
X122455127Y-105773176D02*
X122563984Y-105809461D01*
X122563984Y-105809461D02*
X122636556Y-105809461D01*
X122636556Y-105809461D02*
X122745413Y-105773176D01*
X122745413Y-105773176D02*
X122781699Y-105736890D01*
X122781699Y-105736890D02*
X122781699Y-105482890D01*
X122781699Y-105482890D02*
X122636556Y-105482890D01*
X123108270Y-105809461D02*
X123108270Y-105047461D01*
X123108270Y-105047461D02*
X123398556Y-105047461D01*
X123398556Y-105047461D02*
X123471127Y-105083747D01*
X123471127Y-105083747D02*
X123507413Y-105120033D01*
X123507413Y-105120033D02*
X123543699Y-105192604D01*
X123543699Y-105192604D02*
X123543699Y-105301461D01*
X123543699Y-105301461D02*
X123507413Y-105374033D01*
X123507413Y-105374033D02*
X123471127Y-105410318D01*
X123471127Y-105410318D02*
X123398556Y-105446604D01*
X123398556Y-105446604D02*
X123108270Y-105446604D01*
X123870270Y-105809461D02*
X123870270Y-105047461D01*
X124378270Y-105047461D02*
X124523413Y-105047461D01*
X124523413Y-105047461D02*
X124595984Y-105083747D01*
X124595984Y-105083747D02*
X124668556Y-105156318D01*
X124668556Y-105156318D02*
X124704841Y-105301461D01*
X124704841Y-105301461D02*
X124704841Y-105555461D01*
X124704841Y-105555461D02*
X124668556Y-105700604D01*
X124668556Y-105700604D02*
X124595984Y-105773176D01*
X124595984Y-105773176D02*
X124523413Y-105809461D01*
X124523413Y-105809461D02*
X124378270Y-105809461D01*
X124378270Y-105809461D02*
X124305699Y-105773176D01*
X124305699Y-105773176D02*
X124233127Y-105700604D01*
X124233127Y-105700604D02*
X124196841Y-105555461D01*
X124196841Y-105555461D02*
X124196841Y-105301461D01*
X124196841Y-105301461D02*
X124233127Y-105156318D01*
X124233127Y-105156318D02*
X124305699Y-105083747D01*
X124305699Y-105083747D02*
X124378270Y-105047461D01*
X125430556Y-105809461D02*
X124995127Y-105809461D01*
X125212842Y-105809461D02*
X125212842Y-105047461D01*
X125212842Y-105047461D02*
X125140270Y-105156318D01*
X125140270Y-105156318D02*
X125067699Y-105228890D01*
X125067699Y-105228890D02*
X124995127Y-105265176D01*
X126119984Y-105047461D02*
X125757127Y-105047461D01*
X125757127Y-105047461D02*
X125720841Y-105410318D01*
X125720841Y-105410318D02*
X125757127Y-105374033D01*
X125757127Y-105374033D02*
X125829699Y-105337747D01*
X125829699Y-105337747D02*
X126011127Y-105337747D01*
X126011127Y-105337747D02*
X126083699Y-105374033D01*
X126083699Y-105374033D02*
X126119984Y-105410318D01*
X126119984Y-105410318D02*
X126156270Y-105482890D01*
X126156270Y-105482890D02*
X126156270Y-105664318D01*
X126156270Y-105664318D02*
X126119984Y-105736890D01*
X126119984Y-105736890D02*
X126083699Y-105773176D01*
X126083699Y-105773176D02*
X126011127Y-105809461D01*
X126011127Y-105809461D02*
X125829699Y-105809461D01*
X125829699Y-105809461D02*
X125757127Y-105773176D01*
X125757127Y-105773176D02*
X125720841Y-105736890D01*
X123507413Y-84509747D02*
X123434842Y-84473461D01*
X123434842Y-84473461D02*
X123325984Y-84473461D01*
X123325984Y-84473461D02*
X123217127Y-84509747D01*
X123217127Y-84509747D02*
X123144556Y-84582318D01*
X123144556Y-84582318D02*
X123108270Y-84654890D01*
X123108270Y-84654890D02*
X123071984Y-84800033D01*
X123071984Y-84800033D02*
X123071984Y-84908890D01*
X123071984Y-84908890D02*
X123108270Y-85054033D01*
X123108270Y-85054033D02*
X123144556Y-85126604D01*
X123144556Y-85126604D02*
X123217127Y-85199176D01*
X123217127Y-85199176D02*
X123325984Y-85235461D01*
X123325984Y-85235461D02*
X123398556Y-85235461D01*
X123398556Y-85235461D02*
X123507413Y-85199176D01*
X123507413Y-85199176D02*
X123543699Y-85162890D01*
X123543699Y-85162890D02*
X123543699Y-84908890D01*
X123543699Y-84908890D02*
X123398556Y-84908890D01*
X123870270Y-85235461D02*
X123870270Y-84473461D01*
X123870270Y-84473461D02*
X124160556Y-84473461D01*
X124160556Y-84473461D02*
X124233127Y-84509747D01*
X124233127Y-84509747D02*
X124269413Y-84546033D01*
X124269413Y-84546033D02*
X124305699Y-84618604D01*
X124305699Y-84618604D02*
X124305699Y-84727461D01*
X124305699Y-84727461D02*
X124269413Y-84800033D01*
X124269413Y-84800033D02*
X124233127Y-84836318D01*
X124233127Y-84836318D02*
X124160556Y-84872604D01*
X124160556Y-84872604D02*
X123870270Y-84872604D01*
X124632270Y-85235461D02*
X124632270Y-84473461D01*
X125140270Y-84473461D02*
X125285413Y-84473461D01*
X125285413Y-84473461D02*
X125357984Y-84509747D01*
X125357984Y-84509747D02*
X125430556Y-84582318D01*
X125430556Y-84582318D02*
X125466841Y-84727461D01*
X125466841Y-84727461D02*
X125466841Y-84981461D01*
X125466841Y-84981461D02*
X125430556Y-85126604D01*
X125430556Y-85126604D02*
X125357984Y-85199176D01*
X125357984Y-85199176D02*
X125285413Y-85235461D01*
X125285413Y-85235461D02*
X125140270Y-85235461D01*
X125140270Y-85235461D02*
X125067699Y-85199176D01*
X125067699Y-85199176D02*
X124995127Y-85126604D01*
X124995127Y-85126604D02*
X124958841Y-84981461D01*
X124958841Y-84981461D02*
X124958841Y-84727461D01*
X124958841Y-84727461D02*
X124995127Y-84582318D01*
X124995127Y-84582318D02*
X125067699Y-84509747D01*
X125067699Y-84509747D02*
X125140270Y-84473461D01*
X126119985Y-84727461D02*
X126119985Y-85235461D01*
X125938556Y-84437176D02*
X125757127Y-84981461D01*
X125757127Y-84981461D02*
X126228842Y-84981461D01*
X122745413Y-100003747D02*
X122672842Y-99967461D01*
X122672842Y-99967461D02*
X122563984Y-99967461D01*
X122563984Y-99967461D02*
X122455127Y-100003747D01*
X122455127Y-100003747D02*
X122382556Y-100076318D01*
X122382556Y-100076318D02*
X122346270Y-100148890D01*
X122346270Y-100148890D02*
X122309984Y-100294033D01*
X122309984Y-100294033D02*
X122309984Y-100402890D01*
X122309984Y-100402890D02*
X122346270Y-100548033D01*
X122346270Y-100548033D02*
X122382556Y-100620604D01*
X122382556Y-100620604D02*
X122455127Y-100693176D01*
X122455127Y-100693176D02*
X122563984Y-100729461D01*
X122563984Y-100729461D02*
X122636556Y-100729461D01*
X122636556Y-100729461D02*
X122745413Y-100693176D01*
X122745413Y-100693176D02*
X122781699Y-100656890D01*
X122781699Y-100656890D02*
X122781699Y-100402890D01*
X122781699Y-100402890D02*
X122636556Y-100402890D01*
X123108270Y-100729461D02*
X123108270Y-99967461D01*
X123108270Y-99967461D02*
X123398556Y-99967461D01*
X123398556Y-99967461D02*
X123471127Y-100003747D01*
X123471127Y-100003747D02*
X123507413Y-100040033D01*
X123507413Y-100040033D02*
X123543699Y-100112604D01*
X123543699Y-100112604D02*
X123543699Y-100221461D01*
X123543699Y-100221461D02*
X123507413Y-100294033D01*
X123507413Y-100294033D02*
X123471127Y-100330318D01*
X123471127Y-100330318D02*
X123398556Y-100366604D01*
X123398556Y-100366604D02*
X123108270Y-100366604D01*
X123870270Y-100729461D02*
X123870270Y-99967461D01*
X124378270Y-99967461D02*
X124523413Y-99967461D01*
X124523413Y-99967461D02*
X124595984Y-100003747D01*
X124595984Y-100003747D02*
X124668556Y-100076318D01*
X124668556Y-100076318D02*
X124704841Y-100221461D01*
X124704841Y-100221461D02*
X124704841Y-100475461D01*
X124704841Y-100475461D02*
X124668556Y-100620604D01*
X124668556Y-100620604D02*
X124595984Y-100693176D01*
X124595984Y-100693176D02*
X124523413Y-100729461D01*
X124523413Y-100729461D02*
X124378270Y-100729461D01*
X124378270Y-100729461D02*
X124305699Y-100693176D01*
X124305699Y-100693176D02*
X124233127Y-100620604D01*
X124233127Y-100620604D02*
X124196841Y-100475461D01*
X124196841Y-100475461D02*
X124196841Y-100221461D01*
X124196841Y-100221461D02*
X124233127Y-100076318D01*
X124233127Y-100076318D02*
X124305699Y-100003747D01*
X124305699Y-100003747D02*
X124378270Y-99967461D01*
X125430556Y-100729461D02*
X124995127Y-100729461D01*
X125212842Y-100729461D02*
X125212842Y-99967461D01*
X125212842Y-99967461D02*
X125140270Y-100076318D01*
X125140270Y-100076318D02*
X125067699Y-100148890D01*
X125067699Y-100148890D02*
X124995127Y-100185176D01*
X125720841Y-100040033D02*
X125757127Y-100003747D01*
X125757127Y-100003747D02*
X125829699Y-99967461D01*
X125829699Y-99967461D02*
X126011127Y-99967461D01*
X126011127Y-99967461D02*
X126083699Y-100003747D01*
X126083699Y-100003747D02*
X126119984Y-100040033D01*
X126119984Y-100040033D02*
X126156270Y-100112604D01*
X126156270Y-100112604D02*
X126156270Y-100185176D01*
X126156270Y-100185176D02*
X126119984Y-100294033D01*
X126119984Y-100294033D02*
X125684556Y-100729461D01*
X125684556Y-100729461D02*
X126156270Y-100729461D01*
X124305699Y-92347461D02*
X124777413Y-92347461D01*
X124777413Y-92347461D02*
X124523413Y-92637747D01*
X124523413Y-92637747D02*
X124632270Y-92637747D01*
X124632270Y-92637747D02*
X124704842Y-92674033D01*
X124704842Y-92674033D02*
X124741127Y-92710318D01*
X124741127Y-92710318D02*
X124777413Y-92782890D01*
X124777413Y-92782890D02*
X124777413Y-92964318D01*
X124777413Y-92964318D02*
X124741127Y-93036890D01*
X124741127Y-93036890D02*
X124704842Y-93073176D01*
X124704842Y-93073176D02*
X124632270Y-93109461D01*
X124632270Y-93109461D02*
X124414556Y-93109461D01*
X124414556Y-93109461D02*
X124341984Y-93073176D01*
X124341984Y-93073176D02*
X124305699Y-93036890D01*
X124995127Y-92347461D02*
X125249127Y-93109461D01*
X125249127Y-93109461D02*
X125503127Y-92347461D01*
X125684556Y-92347461D02*
X126156270Y-92347461D01*
X126156270Y-92347461D02*
X125902270Y-92637747D01*
X125902270Y-92637747D02*
X126011127Y-92637747D01*
X126011127Y-92637747D02*
X126083699Y-92674033D01*
X126083699Y-92674033D02*
X126119984Y-92710318D01*
X126119984Y-92710318D02*
X126156270Y-92782890D01*
X126156270Y-92782890D02*
X126156270Y-92964318D01*
X126156270Y-92964318D02*
X126119984Y-93036890D01*
X126119984Y-93036890D02*
X126083699Y-93073176D01*
X126083699Y-93073176D02*
X126011127Y-93109461D01*
X126011127Y-93109461D02*
X125793413Y-93109461D01*
X125793413Y-93109461D02*
X125720841Y-93073176D01*
X125720841Y-93073176D02*
X125684556Y-93036890D01*
D10*
X113343095Y-76914819D02*
X113343095Y-77724342D01*
X113343095Y-77724342D02*
X113390714Y-77819580D01*
X113390714Y-77819580D02*
X113438333Y-77867200D01*
X113438333Y-77867200D02*
X113533571Y-77914819D01*
X113533571Y-77914819D02*
X113724047Y-77914819D01*
X113724047Y-77914819D02*
X113819285Y-77867200D01*
X113819285Y-77867200D02*
X113866904Y-77819580D01*
X113866904Y-77819580D02*
X113914523Y-77724342D01*
X113914523Y-77724342D02*
X113914523Y-76914819D01*
X114343095Y-77867200D02*
X114485952Y-77914819D01*
X114485952Y-77914819D02*
X114724047Y-77914819D01*
X114724047Y-77914819D02*
X114819285Y-77867200D01*
X114819285Y-77867200D02*
X114866904Y-77819580D01*
X114866904Y-77819580D02*
X114914523Y-77724342D01*
X114914523Y-77724342D02*
X114914523Y-77629104D01*
X114914523Y-77629104D02*
X114866904Y-77533866D01*
X114866904Y-77533866D02*
X114819285Y-77486247D01*
X114819285Y-77486247D02*
X114724047Y-77438628D01*
X114724047Y-77438628D02*
X114533571Y-77391009D01*
X114533571Y-77391009D02*
X114438333Y-77343390D01*
X114438333Y-77343390D02*
X114390714Y-77295771D01*
X114390714Y-77295771D02*
X114343095Y-77200533D01*
X114343095Y-77200533D02*
X114343095Y-77105295D01*
X114343095Y-77105295D02*
X114390714Y-77010057D01*
X114390714Y-77010057D02*
X114438333Y-76962438D01*
X114438333Y-76962438D02*
X114533571Y-76914819D01*
X114533571Y-76914819D02*
X114771666Y-76914819D01*
X114771666Y-76914819D02*
X114914523Y-76962438D01*
X115676428Y-77391009D02*
X115819285Y-77438628D01*
X115819285Y-77438628D02*
X115866904Y-77486247D01*
X115866904Y-77486247D02*
X115914523Y-77581485D01*
X115914523Y-77581485D02*
X115914523Y-77724342D01*
X115914523Y-77724342D02*
X115866904Y-77819580D01*
X115866904Y-77819580D02*
X115819285Y-77867200D01*
X115819285Y-77867200D02*
X115724047Y-77914819D01*
X115724047Y-77914819D02*
X115343095Y-77914819D01*
X115343095Y-77914819D02*
X115343095Y-76914819D01*
X115343095Y-76914819D02*
X115676428Y-76914819D01*
X115676428Y-76914819D02*
X115771666Y-76962438D01*
X115771666Y-76962438D02*
X115819285Y-77010057D01*
X115819285Y-77010057D02*
X115866904Y-77105295D01*
X115866904Y-77105295D02*
X115866904Y-77200533D01*
X115866904Y-77200533D02*
X115819285Y-77295771D01*
X115819285Y-77295771D02*
X115771666Y-77343390D01*
X115771666Y-77343390D02*
X115676428Y-77391009D01*
X115676428Y-77391009D02*
X115343095Y-77391009D01*
D13*
X102207699Y-99967461D02*
X102679413Y-99967461D01*
X102679413Y-99967461D02*
X102425413Y-100257747D01*
X102425413Y-100257747D02*
X102534270Y-100257747D01*
X102534270Y-100257747D02*
X102606842Y-100294033D01*
X102606842Y-100294033D02*
X102643127Y-100330318D01*
X102643127Y-100330318D02*
X102679413Y-100402890D01*
X102679413Y-100402890D02*
X102679413Y-100584318D01*
X102679413Y-100584318D02*
X102643127Y-100656890D01*
X102643127Y-100656890D02*
X102606842Y-100693176D01*
X102606842Y-100693176D02*
X102534270Y-100729461D01*
X102534270Y-100729461D02*
X102316556Y-100729461D01*
X102316556Y-100729461D02*
X102243984Y-100693176D01*
X102243984Y-100693176D02*
X102207699Y-100656890D01*
X102897127Y-99967461D02*
X103151127Y-100729461D01*
X103151127Y-100729461D02*
X103405127Y-99967461D01*
X103586556Y-99967461D02*
X104058270Y-99967461D01*
X104058270Y-99967461D02*
X103804270Y-100257747D01*
X103804270Y-100257747D02*
X103913127Y-100257747D01*
X103913127Y-100257747D02*
X103985699Y-100294033D01*
X103985699Y-100294033D02*
X104021984Y-100330318D01*
X104021984Y-100330318D02*
X104058270Y-100402890D01*
X104058270Y-100402890D02*
X104058270Y-100584318D01*
X104058270Y-100584318D02*
X104021984Y-100656890D01*
X104021984Y-100656890D02*
X103985699Y-100693176D01*
X103985699Y-100693176D02*
X103913127Y-100729461D01*
X103913127Y-100729461D02*
X103695413Y-100729461D01*
X103695413Y-100729461D02*
X103622841Y-100693176D01*
X103622841Y-100693176D02*
X103586556Y-100656890D01*
X102715699Y-90569461D02*
X102461699Y-90206604D01*
X102280270Y-90569461D02*
X102280270Y-89807461D01*
X102280270Y-89807461D02*
X102570556Y-89807461D01*
X102570556Y-89807461D02*
X102643127Y-89843747D01*
X102643127Y-89843747D02*
X102679413Y-89880033D01*
X102679413Y-89880033D02*
X102715699Y-89952604D01*
X102715699Y-89952604D02*
X102715699Y-90061461D01*
X102715699Y-90061461D02*
X102679413Y-90134033D01*
X102679413Y-90134033D02*
X102643127Y-90170318D01*
X102643127Y-90170318D02*
X102570556Y-90206604D01*
X102570556Y-90206604D02*
X102280270Y-90206604D01*
X103005984Y-90533176D02*
X103114842Y-90569461D01*
X103114842Y-90569461D02*
X103296270Y-90569461D01*
X103296270Y-90569461D02*
X103368842Y-90533176D01*
X103368842Y-90533176D02*
X103405127Y-90496890D01*
X103405127Y-90496890D02*
X103441413Y-90424318D01*
X103441413Y-90424318D02*
X103441413Y-90351747D01*
X103441413Y-90351747D02*
X103405127Y-90279176D01*
X103405127Y-90279176D02*
X103368842Y-90242890D01*
X103368842Y-90242890D02*
X103296270Y-90206604D01*
X103296270Y-90206604D02*
X103151127Y-90170318D01*
X103151127Y-90170318D02*
X103078556Y-90134033D01*
X103078556Y-90134033D02*
X103042270Y-90097747D01*
X103042270Y-90097747D02*
X103005984Y-90025176D01*
X103005984Y-90025176D02*
X103005984Y-89952604D01*
X103005984Y-89952604D02*
X103042270Y-89880033D01*
X103042270Y-89880033D02*
X103078556Y-89843747D01*
X103078556Y-89843747D02*
X103151127Y-89807461D01*
X103151127Y-89807461D02*
X103332556Y-89807461D01*
X103332556Y-89807461D02*
X103441413Y-89843747D01*
X103659127Y-89807461D02*
X103913127Y-90569461D01*
X103913127Y-90569461D02*
X104167127Y-89807461D01*
X123507413Y-87303747D02*
X123434842Y-87267461D01*
X123434842Y-87267461D02*
X123325984Y-87267461D01*
X123325984Y-87267461D02*
X123217127Y-87303747D01*
X123217127Y-87303747D02*
X123144556Y-87376318D01*
X123144556Y-87376318D02*
X123108270Y-87448890D01*
X123108270Y-87448890D02*
X123071984Y-87594033D01*
X123071984Y-87594033D02*
X123071984Y-87702890D01*
X123071984Y-87702890D02*
X123108270Y-87848033D01*
X123108270Y-87848033D02*
X123144556Y-87920604D01*
X123144556Y-87920604D02*
X123217127Y-87993176D01*
X123217127Y-87993176D02*
X123325984Y-88029461D01*
X123325984Y-88029461D02*
X123398556Y-88029461D01*
X123398556Y-88029461D02*
X123507413Y-87993176D01*
X123507413Y-87993176D02*
X123543699Y-87956890D01*
X123543699Y-87956890D02*
X123543699Y-87702890D01*
X123543699Y-87702890D02*
X123398556Y-87702890D01*
X123870270Y-88029461D02*
X123870270Y-87267461D01*
X123870270Y-87267461D02*
X124160556Y-87267461D01*
X124160556Y-87267461D02*
X124233127Y-87303747D01*
X124233127Y-87303747D02*
X124269413Y-87340033D01*
X124269413Y-87340033D02*
X124305699Y-87412604D01*
X124305699Y-87412604D02*
X124305699Y-87521461D01*
X124305699Y-87521461D02*
X124269413Y-87594033D01*
X124269413Y-87594033D02*
X124233127Y-87630318D01*
X124233127Y-87630318D02*
X124160556Y-87666604D01*
X124160556Y-87666604D02*
X123870270Y-87666604D01*
X124632270Y-88029461D02*
X124632270Y-87267461D01*
X125140270Y-87267461D02*
X125285413Y-87267461D01*
X125285413Y-87267461D02*
X125357984Y-87303747D01*
X125357984Y-87303747D02*
X125430556Y-87376318D01*
X125430556Y-87376318D02*
X125466841Y-87521461D01*
X125466841Y-87521461D02*
X125466841Y-87775461D01*
X125466841Y-87775461D02*
X125430556Y-87920604D01*
X125430556Y-87920604D02*
X125357984Y-87993176D01*
X125357984Y-87993176D02*
X125285413Y-88029461D01*
X125285413Y-88029461D02*
X125140270Y-88029461D01*
X125140270Y-88029461D02*
X125067699Y-87993176D01*
X125067699Y-87993176D02*
X124995127Y-87920604D01*
X124995127Y-87920604D02*
X124958841Y-87775461D01*
X124958841Y-87775461D02*
X124958841Y-87521461D01*
X124958841Y-87521461D02*
X124995127Y-87376318D01*
X124995127Y-87376318D02*
X125067699Y-87303747D01*
X125067699Y-87303747D02*
X125140270Y-87267461D01*
X125938556Y-87267461D02*
X126011127Y-87267461D01*
X126011127Y-87267461D02*
X126083699Y-87303747D01*
X126083699Y-87303747D02*
X126119985Y-87340033D01*
X126119985Y-87340033D02*
X126156270Y-87412604D01*
X126156270Y-87412604D02*
X126192556Y-87557747D01*
X126192556Y-87557747D02*
X126192556Y-87739176D01*
X126192556Y-87739176D02*
X126156270Y-87884318D01*
X126156270Y-87884318D02*
X126119985Y-87956890D01*
X126119985Y-87956890D02*
X126083699Y-87993176D01*
X126083699Y-87993176D02*
X126011127Y-88029461D01*
X126011127Y-88029461D02*
X125938556Y-88029461D01*
X125938556Y-88029461D02*
X125865985Y-87993176D01*
X125865985Y-87993176D02*
X125829699Y-87956890D01*
X125829699Y-87956890D02*
X125793413Y-87884318D01*
X125793413Y-87884318D02*
X125757127Y-87739176D01*
X125757127Y-87739176D02*
X125757127Y-87557747D01*
X125757127Y-87557747D02*
X125793413Y-87412604D01*
X125793413Y-87412604D02*
X125829699Y-87340033D01*
X125829699Y-87340033D02*
X125865985Y-87303747D01*
X125865985Y-87303747D02*
X125938556Y-87267461D01*
X124523413Y-94923747D02*
X124450842Y-94887461D01*
X124450842Y-94887461D02*
X124341984Y-94887461D01*
X124341984Y-94887461D02*
X124233127Y-94923747D01*
X124233127Y-94923747D02*
X124160556Y-94996318D01*
X124160556Y-94996318D02*
X124124270Y-95068890D01*
X124124270Y-95068890D02*
X124087984Y-95214033D01*
X124087984Y-95214033D02*
X124087984Y-95322890D01*
X124087984Y-95322890D02*
X124124270Y-95468033D01*
X124124270Y-95468033D02*
X124160556Y-95540604D01*
X124160556Y-95540604D02*
X124233127Y-95613176D01*
X124233127Y-95613176D02*
X124341984Y-95649461D01*
X124341984Y-95649461D02*
X124414556Y-95649461D01*
X124414556Y-95649461D02*
X124523413Y-95613176D01*
X124523413Y-95613176D02*
X124559699Y-95576890D01*
X124559699Y-95576890D02*
X124559699Y-95322890D01*
X124559699Y-95322890D02*
X124414556Y-95322890D01*
X124886270Y-95649461D02*
X124886270Y-94887461D01*
X124886270Y-94887461D02*
X125321699Y-95649461D01*
X125321699Y-95649461D02*
X125321699Y-94887461D01*
X125684556Y-95649461D02*
X125684556Y-94887461D01*
X125684556Y-94887461D02*
X125865985Y-94887461D01*
X125865985Y-94887461D02*
X125974842Y-94923747D01*
X125974842Y-94923747D02*
X126047413Y-94996318D01*
X126047413Y-94996318D02*
X126083699Y-95068890D01*
X126083699Y-95068890D02*
X126119985Y-95214033D01*
X126119985Y-95214033D02*
X126119985Y-95322890D01*
X126119985Y-95322890D02*
X126083699Y-95468033D01*
X126083699Y-95468033D02*
X126047413Y-95540604D01*
X126047413Y-95540604D02*
X125974842Y-95613176D01*
X125974842Y-95613176D02*
X125865985Y-95649461D01*
X125865985Y-95649461D02*
X125684556Y-95649461D01*
X102715699Y-88029461D02*
X102461699Y-87666604D01*
X102280270Y-88029461D02*
X102280270Y-87267461D01*
X102280270Y-87267461D02*
X102570556Y-87267461D01*
X102570556Y-87267461D02*
X102643127Y-87303747D01*
X102643127Y-87303747D02*
X102679413Y-87340033D01*
X102679413Y-87340033D02*
X102715699Y-87412604D01*
X102715699Y-87412604D02*
X102715699Y-87521461D01*
X102715699Y-87521461D02*
X102679413Y-87594033D01*
X102679413Y-87594033D02*
X102643127Y-87630318D01*
X102643127Y-87630318D02*
X102570556Y-87666604D01*
X102570556Y-87666604D02*
X102280270Y-87666604D01*
X103005984Y-87993176D02*
X103114842Y-88029461D01*
X103114842Y-88029461D02*
X103296270Y-88029461D01*
X103296270Y-88029461D02*
X103368842Y-87993176D01*
X103368842Y-87993176D02*
X103405127Y-87956890D01*
X103405127Y-87956890D02*
X103441413Y-87884318D01*
X103441413Y-87884318D02*
X103441413Y-87811747D01*
X103441413Y-87811747D02*
X103405127Y-87739176D01*
X103405127Y-87739176D02*
X103368842Y-87702890D01*
X103368842Y-87702890D02*
X103296270Y-87666604D01*
X103296270Y-87666604D02*
X103151127Y-87630318D01*
X103151127Y-87630318D02*
X103078556Y-87594033D01*
X103078556Y-87594033D02*
X103042270Y-87557747D01*
X103042270Y-87557747D02*
X103005984Y-87485176D01*
X103005984Y-87485176D02*
X103005984Y-87412604D01*
X103005984Y-87412604D02*
X103042270Y-87340033D01*
X103042270Y-87340033D02*
X103078556Y-87303747D01*
X103078556Y-87303747D02*
X103151127Y-87267461D01*
X103151127Y-87267461D02*
X103332556Y-87267461D01*
X103332556Y-87267461D02*
X103441413Y-87303747D01*
X103659127Y-87267461D02*
X103913127Y-88029461D01*
X103913127Y-88029461D02*
X104167127Y-87267461D01*
D10*
X109075009Y-79523571D02*
X109075009Y-79856904D01*
X109598819Y-79856904D02*
X108598819Y-79856904D01*
X108598819Y-79856904D02*
X108598819Y-79380714D01*
X109598819Y-78856904D02*
X109551200Y-78952142D01*
X109551200Y-78952142D02*
X109455961Y-78999761D01*
X109455961Y-78999761D02*
X108598819Y-78999761D01*
X109598819Y-78047380D02*
X109075009Y-78047380D01*
X109075009Y-78047380D02*
X108979771Y-78094999D01*
X108979771Y-78094999D02*
X108932152Y-78190237D01*
X108932152Y-78190237D02*
X108932152Y-78380713D01*
X108932152Y-78380713D02*
X108979771Y-78475951D01*
X109551200Y-78047380D02*
X109598819Y-78142618D01*
X109598819Y-78142618D02*
X109598819Y-78380713D01*
X109598819Y-78380713D02*
X109551200Y-78475951D01*
X109551200Y-78475951D02*
X109455961Y-78523570D01*
X109455961Y-78523570D02*
X109360723Y-78523570D01*
X109360723Y-78523570D02*
X109265485Y-78475951D01*
X109265485Y-78475951D02*
X109217866Y-78380713D01*
X109217866Y-78380713D02*
X109217866Y-78142618D01*
X109217866Y-78142618D02*
X109170247Y-78047380D01*
X109551200Y-77618808D02*
X109598819Y-77523570D01*
X109598819Y-77523570D02*
X109598819Y-77333094D01*
X109598819Y-77333094D02*
X109551200Y-77237856D01*
X109551200Y-77237856D02*
X109455961Y-77190237D01*
X109455961Y-77190237D02*
X109408342Y-77190237D01*
X109408342Y-77190237D02*
X109313104Y-77237856D01*
X109313104Y-77237856D02*
X109265485Y-77333094D01*
X109265485Y-77333094D02*
X109265485Y-77475951D01*
X109265485Y-77475951D02*
X109217866Y-77571189D01*
X109217866Y-77571189D02*
X109122628Y-77618808D01*
X109122628Y-77618808D02*
X109075009Y-77618808D01*
X109075009Y-77618808D02*
X108979771Y-77571189D01*
X108979771Y-77571189D02*
X108932152Y-77475951D01*
X108932152Y-77475951D02*
X108932152Y-77333094D01*
X108932152Y-77333094D02*
X108979771Y-77237856D01*
X109598819Y-76761665D02*
X108598819Y-76761665D01*
X109598819Y-76333094D02*
X109075009Y-76333094D01*
X109075009Y-76333094D02*
X108979771Y-76380713D01*
X108979771Y-76380713D02*
X108932152Y-76475951D01*
X108932152Y-76475951D02*
X108932152Y-76618808D01*
X108932152Y-76618808D02*
X108979771Y-76714046D01*
X108979771Y-76714046D02*
X109027390Y-76761665D01*
D13*
X123507413Y-80445747D02*
X123434842Y-80409461D01*
X123434842Y-80409461D02*
X123325984Y-80409461D01*
X123325984Y-80409461D02*
X123217127Y-80445747D01*
X123217127Y-80445747D02*
X123144556Y-80518318D01*
X123144556Y-80518318D02*
X123108270Y-80590890D01*
X123108270Y-80590890D02*
X123071984Y-80736033D01*
X123071984Y-80736033D02*
X123071984Y-80844890D01*
X123071984Y-80844890D02*
X123108270Y-80990033D01*
X123108270Y-80990033D02*
X123144556Y-81062604D01*
X123144556Y-81062604D02*
X123217127Y-81135176D01*
X123217127Y-81135176D02*
X123325984Y-81171461D01*
X123325984Y-81171461D02*
X123398556Y-81171461D01*
X123398556Y-81171461D02*
X123507413Y-81135176D01*
X123507413Y-81135176D02*
X123543699Y-81098890D01*
X123543699Y-81098890D02*
X123543699Y-80844890D01*
X123543699Y-80844890D02*
X123398556Y-80844890D01*
X123870270Y-81171461D02*
X123870270Y-80409461D01*
X123870270Y-80409461D02*
X124160556Y-80409461D01*
X124160556Y-80409461D02*
X124233127Y-80445747D01*
X124233127Y-80445747D02*
X124269413Y-80482033D01*
X124269413Y-80482033D02*
X124305699Y-80554604D01*
X124305699Y-80554604D02*
X124305699Y-80663461D01*
X124305699Y-80663461D02*
X124269413Y-80736033D01*
X124269413Y-80736033D02*
X124233127Y-80772318D01*
X124233127Y-80772318D02*
X124160556Y-80808604D01*
X124160556Y-80808604D02*
X123870270Y-80808604D01*
X124632270Y-81171461D02*
X124632270Y-80409461D01*
X125140270Y-80409461D02*
X125285413Y-80409461D01*
X125285413Y-80409461D02*
X125357984Y-80445747D01*
X125357984Y-80445747D02*
X125430556Y-80518318D01*
X125430556Y-80518318D02*
X125466841Y-80663461D01*
X125466841Y-80663461D02*
X125466841Y-80917461D01*
X125466841Y-80917461D02*
X125430556Y-81062604D01*
X125430556Y-81062604D02*
X125357984Y-81135176D01*
X125357984Y-81135176D02*
X125285413Y-81171461D01*
X125285413Y-81171461D02*
X125140270Y-81171461D01*
X125140270Y-81171461D02*
X125067699Y-81135176D01*
X125067699Y-81135176D02*
X124995127Y-81062604D01*
X124995127Y-81062604D02*
X124958841Y-80917461D01*
X124958841Y-80917461D02*
X124958841Y-80663461D01*
X124958841Y-80663461D02*
X124995127Y-80518318D01*
X124995127Y-80518318D02*
X125067699Y-80445747D01*
X125067699Y-80445747D02*
X125140270Y-80409461D01*
X126119985Y-80409461D02*
X125974842Y-80409461D01*
X125974842Y-80409461D02*
X125902270Y-80445747D01*
X125902270Y-80445747D02*
X125865985Y-80482033D01*
X125865985Y-80482033D02*
X125793413Y-80590890D01*
X125793413Y-80590890D02*
X125757127Y-80736033D01*
X125757127Y-80736033D02*
X125757127Y-81026318D01*
X125757127Y-81026318D02*
X125793413Y-81098890D01*
X125793413Y-81098890D02*
X125829699Y-81135176D01*
X125829699Y-81135176D02*
X125902270Y-81171461D01*
X125902270Y-81171461D02*
X126047413Y-81171461D01*
X126047413Y-81171461D02*
X126119985Y-81135176D01*
X126119985Y-81135176D02*
X126156270Y-81098890D01*
X126156270Y-81098890D02*
X126192556Y-81026318D01*
X126192556Y-81026318D02*
X126192556Y-80844890D01*
X126192556Y-80844890D02*
X126156270Y-80772318D01*
X126156270Y-80772318D02*
X126119985Y-80736033D01*
X126119985Y-80736033D02*
X126047413Y-80699747D01*
X126047413Y-80699747D02*
X125902270Y-80699747D01*
X125902270Y-80699747D02*
X125829699Y-80736033D01*
X125829699Y-80736033D02*
X125793413Y-80772318D01*
X125793413Y-80772318D02*
X125757127Y-80844890D01*
X123507413Y-89843747D02*
X123434842Y-89807461D01*
X123434842Y-89807461D02*
X123325984Y-89807461D01*
X123325984Y-89807461D02*
X123217127Y-89843747D01*
X123217127Y-89843747D02*
X123144556Y-89916318D01*
X123144556Y-89916318D02*
X123108270Y-89988890D01*
X123108270Y-89988890D02*
X123071984Y-90134033D01*
X123071984Y-90134033D02*
X123071984Y-90242890D01*
X123071984Y-90242890D02*
X123108270Y-90388033D01*
X123108270Y-90388033D02*
X123144556Y-90460604D01*
X123144556Y-90460604D02*
X123217127Y-90533176D01*
X123217127Y-90533176D02*
X123325984Y-90569461D01*
X123325984Y-90569461D02*
X123398556Y-90569461D01*
X123398556Y-90569461D02*
X123507413Y-90533176D01*
X123507413Y-90533176D02*
X123543699Y-90496890D01*
X123543699Y-90496890D02*
X123543699Y-90242890D01*
X123543699Y-90242890D02*
X123398556Y-90242890D01*
X123870270Y-90569461D02*
X123870270Y-89807461D01*
X123870270Y-89807461D02*
X124160556Y-89807461D01*
X124160556Y-89807461D02*
X124233127Y-89843747D01*
X124233127Y-89843747D02*
X124269413Y-89880033D01*
X124269413Y-89880033D02*
X124305699Y-89952604D01*
X124305699Y-89952604D02*
X124305699Y-90061461D01*
X124305699Y-90061461D02*
X124269413Y-90134033D01*
X124269413Y-90134033D02*
X124233127Y-90170318D01*
X124233127Y-90170318D02*
X124160556Y-90206604D01*
X124160556Y-90206604D02*
X123870270Y-90206604D01*
X124632270Y-90569461D02*
X124632270Y-89807461D01*
X125140270Y-89807461D02*
X125285413Y-89807461D01*
X125285413Y-89807461D02*
X125357984Y-89843747D01*
X125357984Y-89843747D02*
X125430556Y-89916318D01*
X125430556Y-89916318D02*
X125466841Y-90061461D01*
X125466841Y-90061461D02*
X125466841Y-90315461D01*
X125466841Y-90315461D02*
X125430556Y-90460604D01*
X125430556Y-90460604D02*
X125357984Y-90533176D01*
X125357984Y-90533176D02*
X125285413Y-90569461D01*
X125285413Y-90569461D02*
X125140270Y-90569461D01*
X125140270Y-90569461D02*
X125067699Y-90533176D01*
X125067699Y-90533176D02*
X124995127Y-90460604D01*
X124995127Y-90460604D02*
X124958841Y-90315461D01*
X124958841Y-90315461D02*
X124958841Y-90061461D01*
X124958841Y-90061461D02*
X124995127Y-89916318D01*
X124995127Y-89916318D02*
X125067699Y-89843747D01*
X125067699Y-89843747D02*
X125140270Y-89807461D01*
X125757127Y-89880033D02*
X125793413Y-89843747D01*
X125793413Y-89843747D02*
X125865985Y-89807461D01*
X125865985Y-89807461D02*
X126047413Y-89807461D01*
X126047413Y-89807461D02*
X126119985Y-89843747D01*
X126119985Y-89843747D02*
X126156270Y-89880033D01*
X126156270Y-89880033D02*
X126192556Y-89952604D01*
X126192556Y-89952604D02*
X126192556Y-90025176D01*
X126192556Y-90025176D02*
X126156270Y-90134033D01*
X126156270Y-90134033D02*
X125720842Y-90569461D01*
X125720842Y-90569461D02*
X126192556Y-90569461D01*
D10*
X120282819Y-79936285D02*
X121092342Y-79936285D01*
X121092342Y-79936285D02*
X121187580Y-79888666D01*
X121187580Y-79888666D02*
X121235200Y-79841047D01*
X121235200Y-79841047D02*
X121282819Y-79745809D01*
X121282819Y-79745809D02*
X121282819Y-79555333D01*
X121282819Y-79555333D02*
X121235200Y-79460095D01*
X121235200Y-79460095D02*
X121187580Y-79412476D01*
X121187580Y-79412476D02*
X121092342Y-79364857D01*
X121092342Y-79364857D02*
X120282819Y-79364857D01*
X121235200Y-78936285D02*
X121282819Y-78793428D01*
X121282819Y-78793428D02*
X121282819Y-78555333D01*
X121282819Y-78555333D02*
X121235200Y-78460095D01*
X121235200Y-78460095D02*
X121187580Y-78412476D01*
X121187580Y-78412476D02*
X121092342Y-78364857D01*
X121092342Y-78364857D02*
X120997104Y-78364857D01*
X120997104Y-78364857D02*
X120901866Y-78412476D01*
X120901866Y-78412476D02*
X120854247Y-78460095D01*
X120854247Y-78460095D02*
X120806628Y-78555333D01*
X120806628Y-78555333D02*
X120759009Y-78745809D01*
X120759009Y-78745809D02*
X120711390Y-78841047D01*
X120711390Y-78841047D02*
X120663771Y-78888666D01*
X120663771Y-78888666D02*
X120568533Y-78936285D01*
X120568533Y-78936285D02*
X120473295Y-78936285D01*
X120473295Y-78936285D02*
X120378057Y-78888666D01*
X120378057Y-78888666D02*
X120330438Y-78841047D01*
X120330438Y-78841047D02*
X120282819Y-78745809D01*
X120282819Y-78745809D02*
X120282819Y-78507714D01*
X120282819Y-78507714D02*
X120330438Y-78364857D01*
X120759009Y-77936285D02*
X120759009Y-77602952D01*
X121282819Y-77460095D02*
X121282819Y-77936285D01*
X121282819Y-77936285D02*
X120282819Y-77936285D01*
X120282819Y-77936285D02*
X120282819Y-77460095D01*
X121282819Y-76460095D02*
X120806628Y-76793428D01*
X121282819Y-77031523D02*
X120282819Y-77031523D01*
X120282819Y-77031523D02*
X120282819Y-76650571D01*
X120282819Y-76650571D02*
X120330438Y-76555333D01*
X120330438Y-76555333D02*
X120378057Y-76507714D01*
X120378057Y-76507714D02*
X120473295Y-76460095D01*
X120473295Y-76460095D02*
X120616152Y-76460095D01*
X120616152Y-76460095D02*
X120711390Y-76507714D01*
X120711390Y-76507714D02*
X120759009Y-76555333D01*
X120759009Y-76555333D02*
X120806628Y-76650571D01*
X120806628Y-76650571D02*
X120806628Y-77031523D01*
D13*
X102715699Y-82949461D02*
X102461699Y-82586604D01*
X102280270Y-82949461D02*
X102280270Y-82187461D01*
X102280270Y-82187461D02*
X102570556Y-82187461D01*
X102570556Y-82187461D02*
X102643127Y-82223747D01*
X102643127Y-82223747D02*
X102679413Y-82260033D01*
X102679413Y-82260033D02*
X102715699Y-82332604D01*
X102715699Y-82332604D02*
X102715699Y-82441461D01*
X102715699Y-82441461D02*
X102679413Y-82514033D01*
X102679413Y-82514033D02*
X102643127Y-82550318D01*
X102643127Y-82550318D02*
X102570556Y-82586604D01*
X102570556Y-82586604D02*
X102280270Y-82586604D01*
X103005984Y-82913176D02*
X103114842Y-82949461D01*
X103114842Y-82949461D02*
X103296270Y-82949461D01*
X103296270Y-82949461D02*
X103368842Y-82913176D01*
X103368842Y-82913176D02*
X103405127Y-82876890D01*
X103405127Y-82876890D02*
X103441413Y-82804318D01*
X103441413Y-82804318D02*
X103441413Y-82731747D01*
X103441413Y-82731747D02*
X103405127Y-82659176D01*
X103405127Y-82659176D02*
X103368842Y-82622890D01*
X103368842Y-82622890D02*
X103296270Y-82586604D01*
X103296270Y-82586604D02*
X103151127Y-82550318D01*
X103151127Y-82550318D02*
X103078556Y-82514033D01*
X103078556Y-82514033D02*
X103042270Y-82477747D01*
X103042270Y-82477747D02*
X103005984Y-82405176D01*
X103005984Y-82405176D02*
X103005984Y-82332604D01*
X103005984Y-82332604D02*
X103042270Y-82260033D01*
X103042270Y-82260033D02*
X103078556Y-82223747D01*
X103078556Y-82223747D02*
X103151127Y-82187461D01*
X103151127Y-82187461D02*
X103332556Y-82187461D01*
X103332556Y-82187461D02*
X103441413Y-82223747D01*
X103659127Y-82187461D02*
X103913127Y-82949461D01*
X103913127Y-82949461D02*
X104167127Y-82187461D01*
X123507413Y-110163747D02*
X123434842Y-110127461D01*
X123434842Y-110127461D02*
X123325984Y-110127461D01*
X123325984Y-110127461D02*
X123217127Y-110163747D01*
X123217127Y-110163747D02*
X123144556Y-110236318D01*
X123144556Y-110236318D02*
X123108270Y-110308890D01*
X123108270Y-110308890D02*
X123071984Y-110454033D01*
X123071984Y-110454033D02*
X123071984Y-110562890D01*
X123071984Y-110562890D02*
X123108270Y-110708033D01*
X123108270Y-110708033D02*
X123144556Y-110780604D01*
X123144556Y-110780604D02*
X123217127Y-110853176D01*
X123217127Y-110853176D02*
X123325984Y-110889461D01*
X123325984Y-110889461D02*
X123398556Y-110889461D01*
X123398556Y-110889461D02*
X123507413Y-110853176D01*
X123507413Y-110853176D02*
X123543699Y-110816890D01*
X123543699Y-110816890D02*
X123543699Y-110562890D01*
X123543699Y-110562890D02*
X123398556Y-110562890D01*
X123870270Y-110889461D02*
X123870270Y-110127461D01*
X123870270Y-110127461D02*
X124160556Y-110127461D01*
X124160556Y-110127461D02*
X124233127Y-110163747D01*
X124233127Y-110163747D02*
X124269413Y-110200033D01*
X124269413Y-110200033D02*
X124305699Y-110272604D01*
X124305699Y-110272604D02*
X124305699Y-110381461D01*
X124305699Y-110381461D02*
X124269413Y-110454033D01*
X124269413Y-110454033D02*
X124233127Y-110490318D01*
X124233127Y-110490318D02*
X124160556Y-110526604D01*
X124160556Y-110526604D02*
X123870270Y-110526604D01*
X124632270Y-110889461D02*
X124632270Y-110127461D01*
X125140270Y-110127461D02*
X125285413Y-110127461D01*
X125285413Y-110127461D02*
X125357984Y-110163747D01*
X125357984Y-110163747D02*
X125430556Y-110236318D01*
X125430556Y-110236318D02*
X125466841Y-110381461D01*
X125466841Y-110381461D02*
X125466841Y-110635461D01*
X125466841Y-110635461D02*
X125430556Y-110780604D01*
X125430556Y-110780604D02*
X125357984Y-110853176D01*
X125357984Y-110853176D02*
X125285413Y-110889461D01*
X125285413Y-110889461D02*
X125140270Y-110889461D01*
X125140270Y-110889461D02*
X125067699Y-110853176D01*
X125067699Y-110853176D02*
X124995127Y-110780604D01*
X124995127Y-110780604D02*
X124958841Y-110635461D01*
X124958841Y-110635461D02*
X124958841Y-110381461D01*
X124958841Y-110381461D02*
X124995127Y-110236318D01*
X124995127Y-110236318D02*
X125067699Y-110163747D01*
X125067699Y-110163747D02*
X125140270Y-110127461D01*
X126192556Y-110889461D02*
X125757127Y-110889461D01*
X125974842Y-110889461D02*
X125974842Y-110127461D01*
X125974842Y-110127461D02*
X125902270Y-110236318D01*
X125902270Y-110236318D02*
X125829699Y-110308890D01*
X125829699Y-110308890D02*
X125757127Y-110345176D01*
X102715699Y-85489461D02*
X102461699Y-85126604D01*
X102280270Y-85489461D02*
X102280270Y-84727461D01*
X102280270Y-84727461D02*
X102570556Y-84727461D01*
X102570556Y-84727461D02*
X102643127Y-84763747D01*
X102643127Y-84763747D02*
X102679413Y-84800033D01*
X102679413Y-84800033D02*
X102715699Y-84872604D01*
X102715699Y-84872604D02*
X102715699Y-84981461D01*
X102715699Y-84981461D02*
X102679413Y-85054033D01*
X102679413Y-85054033D02*
X102643127Y-85090318D01*
X102643127Y-85090318D02*
X102570556Y-85126604D01*
X102570556Y-85126604D02*
X102280270Y-85126604D01*
X103005984Y-85453176D02*
X103114842Y-85489461D01*
X103114842Y-85489461D02*
X103296270Y-85489461D01*
X103296270Y-85489461D02*
X103368842Y-85453176D01*
X103368842Y-85453176D02*
X103405127Y-85416890D01*
X103405127Y-85416890D02*
X103441413Y-85344318D01*
X103441413Y-85344318D02*
X103441413Y-85271747D01*
X103441413Y-85271747D02*
X103405127Y-85199176D01*
X103405127Y-85199176D02*
X103368842Y-85162890D01*
X103368842Y-85162890D02*
X103296270Y-85126604D01*
X103296270Y-85126604D02*
X103151127Y-85090318D01*
X103151127Y-85090318D02*
X103078556Y-85054033D01*
X103078556Y-85054033D02*
X103042270Y-85017747D01*
X103042270Y-85017747D02*
X103005984Y-84945176D01*
X103005984Y-84945176D02*
X103005984Y-84872604D01*
X103005984Y-84872604D02*
X103042270Y-84800033D01*
X103042270Y-84800033D02*
X103078556Y-84763747D01*
X103078556Y-84763747D02*
X103151127Y-84727461D01*
X103151127Y-84727461D02*
X103332556Y-84727461D01*
X103332556Y-84727461D02*
X103441413Y-84763747D01*
X103659127Y-84727461D02*
X103913127Y-85489461D01*
X103913127Y-85489461D02*
X104167127Y-84727461D01*
X124305699Y-115207461D02*
X124777413Y-115207461D01*
X124777413Y-115207461D02*
X124523413Y-115497747D01*
X124523413Y-115497747D02*
X124632270Y-115497747D01*
X124632270Y-115497747D02*
X124704842Y-115534033D01*
X124704842Y-115534033D02*
X124741127Y-115570318D01*
X124741127Y-115570318D02*
X124777413Y-115642890D01*
X124777413Y-115642890D02*
X124777413Y-115824318D01*
X124777413Y-115824318D02*
X124741127Y-115896890D01*
X124741127Y-115896890D02*
X124704842Y-115933176D01*
X124704842Y-115933176D02*
X124632270Y-115969461D01*
X124632270Y-115969461D02*
X124414556Y-115969461D01*
X124414556Y-115969461D02*
X124341984Y-115933176D01*
X124341984Y-115933176D02*
X124305699Y-115896890D01*
X124995127Y-115207461D02*
X125249127Y-115969461D01*
X125249127Y-115969461D02*
X125503127Y-115207461D01*
X125684556Y-115207461D02*
X126156270Y-115207461D01*
X126156270Y-115207461D02*
X125902270Y-115497747D01*
X125902270Y-115497747D02*
X126011127Y-115497747D01*
X126011127Y-115497747D02*
X126083699Y-115534033D01*
X126083699Y-115534033D02*
X126119984Y-115570318D01*
X126119984Y-115570318D02*
X126156270Y-115642890D01*
X126156270Y-115642890D02*
X126156270Y-115824318D01*
X126156270Y-115824318D02*
X126119984Y-115896890D01*
X126119984Y-115896890D02*
X126083699Y-115933176D01*
X126083699Y-115933176D02*
X126011127Y-115969461D01*
X126011127Y-115969461D02*
X125793413Y-115969461D01*
X125793413Y-115969461D02*
X125720841Y-115933176D01*
X125720841Y-115933176D02*
X125684556Y-115896890D01*
X102715699Y-110635461D02*
X102461699Y-110272604D01*
X102280270Y-110635461D02*
X102280270Y-109873461D01*
X102280270Y-109873461D02*
X102570556Y-109873461D01*
X102570556Y-109873461D02*
X102643127Y-109909747D01*
X102643127Y-109909747D02*
X102679413Y-109946033D01*
X102679413Y-109946033D02*
X102715699Y-110018604D01*
X102715699Y-110018604D02*
X102715699Y-110127461D01*
X102715699Y-110127461D02*
X102679413Y-110200033D01*
X102679413Y-110200033D02*
X102643127Y-110236318D01*
X102643127Y-110236318D02*
X102570556Y-110272604D01*
X102570556Y-110272604D02*
X102280270Y-110272604D01*
X103005984Y-110599176D02*
X103114842Y-110635461D01*
X103114842Y-110635461D02*
X103296270Y-110635461D01*
X103296270Y-110635461D02*
X103368842Y-110599176D01*
X103368842Y-110599176D02*
X103405127Y-110562890D01*
X103405127Y-110562890D02*
X103441413Y-110490318D01*
X103441413Y-110490318D02*
X103441413Y-110417747D01*
X103441413Y-110417747D02*
X103405127Y-110345176D01*
X103405127Y-110345176D02*
X103368842Y-110308890D01*
X103368842Y-110308890D02*
X103296270Y-110272604D01*
X103296270Y-110272604D02*
X103151127Y-110236318D01*
X103151127Y-110236318D02*
X103078556Y-110200033D01*
X103078556Y-110200033D02*
X103042270Y-110163747D01*
X103042270Y-110163747D02*
X103005984Y-110091176D01*
X103005984Y-110091176D02*
X103005984Y-110018604D01*
X103005984Y-110018604D02*
X103042270Y-109946033D01*
X103042270Y-109946033D02*
X103078556Y-109909747D01*
X103078556Y-109909747D02*
X103151127Y-109873461D01*
X103151127Y-109873461D02*
X103332556Y-109873461D01*
X103332556Y-109873461D02*
X103441413Y-109909747D01*
X103659127Y-109873461D02*
X104094556Y-109873461D01*
X103876841Y-110635461D02*
X103876841Y-109873461D01*
X102679413Y-112703747D02*
X102606842Y-112667461D01*
X102606842Y-112667461D02*
X102497984Y-112667461D01*
X102497984Y-112667461D02*
X102389127Y-112703747D01*
X102389127Y-112703747D02*
X102316556Y-112776318D01*
X102316556Y-112776318D02*
X102280270Y-112848890D01*
X102280270Y-112848890D02*
X102243984Y-112994033D01*
X102243984Y-112994033D02*
X102243984Y-113102890D01*
X102243984Y-113102890D02*
X102280270Y-113248033D01*
X102280270Y-113248033D02*
X102316556Y-113320604D01*
X102316556Y-113320604D02*
X102389127Y-113393176D01*
X102389127Y-113393176D02*
X102497984Y-113429461D01*
X102497984Y-113429461D02*
X102570556Y-113429461D01*
X102570556Y-113429461D02*
X102679413Y-113393176D01*
X102679413Y-113393176D02*
X102715699Y-113356890D01*
X102715699Y-113356890D02*
X102715699Y-113102890D01*
X102715699Y-113102890D02*
X102570556Y-113102890D01*
X103042270Y-113429461D02*
X103042270Y-112667461D01*
X103042270Y-112667461D02*
X103477699Y-113429461D01*
X103477699Y-113429461D02*
X103477699Y-112667461D01*
X103840556Y-113429461D02*
X103840556Y-112667461D01*
X103840556Y-112667461D02*
X104021985Y-112667461D01*
X104021985Y-112667461D02*
X104130842Y-112703747D01*
X104130842Y-112703747D02*
X104203413Y-112776318D01*
X104203413Y-112776318D02*
X104239699Y-112848890D01*
X104239699Y-112848890D02*
X104275985Y-112994033D01*
X104275985Y-112994033D02*
X104275985Y-113102890D01*
X104275985Y-113102890D02*
X104239699Y-113248033D01*
X104239699Y-113248033D02*
X104203413Y-113320604D01*
X104203413Y-113320604D02*
X104130842Y-113393176D01*
X104130842Y-113393176D02*
X104021985Y-113429461D01*
X104021985Y-113429461D02*
X103840556Y-113429461D01*
X102207699Y-105047461D02*
X102679413Y-105047461D01*
X102679413Y-105047461D02*
X102425413Y-105337747D01*
X102425413Y-105337747D02*
X102534270Y-105337747D01*
X102534270Y-105337747D02*
X102606842Y-105374033D01*
X102606842Y-105374033D02*
X102643127Y-105410318D01*
X102643127Y-105410318D02*
X102679413Y-105482890D01*
X102679413Y-105482890D02*
X102679413Y-105664318D01*
X102679413Y-105664318D02*
X102643127Y-105736890D01*
X102643127Y-105736890D02*
X102606842Y-105773176D01*
X102606842Y-105773176D02*
X102534270Y-105809461D01*
X102534270Y-105809461D02*
X102316556Y-105809461D01*
X102316556Y-105809461D02*
X102243984Y-105773176D01*
X102243984Y-105773176D02*
X102207699Y-105736890D01*
X102897127Y-105047461D02*
X103151127Y-105809461D01*
X103151127Y-105809461D02*
X103405127Y-105047461D01*
X103586556Y-105047461D02*
X104058270Y-105047461D01*
X104058270Y-105047461D02*
X103804270Y-105337747D01*
X103804270Y-105337747D02*
X103913127Y-105337747D01*
X103913127Y-105337747D02*
X103985699Y-105374033D01*
X103985699Y-105374033D02*
X104021984Y-105410318D01*
X104021984Y-105410318D02*
X104058270Y-105482890D01*
X104058270Y-105482890D02*
X104058270Y-105664318D01*
X104058270Y-105664318D02*
X104021984Y-105736890D01*
X104021984Y-105736890D02*
X103985699Y-105773176D01*
X103985699Y-105773176D02*
X103913127Y-105809461D01*
X103913127Y-105809461D02*
X103695413Y-105809461D01*
X103695413Y-105809461D02*
X103622841Y-105773176D01*
X103622841Y-105773176D02*
X103586556Y-105736890D01*
X102679413Y-102289747D02*
X102606842Y-102253461D01*
X102606842Y-102253461D02*
X102497984Y-102253461D01*
X102497984Y-102253461D02*
X102389127Y-102289747D01*
X102389127Y-102289747D02*
X102316556Y-102362318D01*
X102316556Y-102362318D02*
X102280270Y-102434890D01*
X102280270Y-102434890D02*
X102243984Y-102580033D01*
X102243984Y-102580033D02*
X102243984Y-102688890D01*
X102243984Y-102688890D02*
X102280270Y-102834033D01*
X102280270Y-102834033D02*
X102316556Y-102906604D01*
X102316556Y-102906604D02*
X102389127Y-102979176D01*
X102389127Y-102979176D02*
X102497984Y-103015461D01*
X102497984Y-103015461D02*
X102570556Y-103015461D01*
X102570556Y-103015461D02*
X102679413Y-102979176D01*
X102679413Y-102979176D02*
X102715699Y-102942890D01*
X102715699Y-102942890D02*
X102715699Y-102688890D01*
X102715699Y-102688890D02*
X102570556Y-102688890D01*
X103042270Y-103015461D02*
X103042270Y-102253461D01*
X103042270Y-102253461D02*
X103477699Y-103015461D01*
X103477699Y-103015461D02*
X103477699Y-102253461D01*
X103840556Y-103015461D02*
X103840556Y-102253461D01*
X103840556Y-102253461D02*
X104021985Y-102253461D01*
X104021985Y-102253461D02*
X104130842Y-102289747D01*
X104130842Y-102289747D02*
X104203413Y-102362318D01*
X104203413Y-102362318D02*
X104239699Y-102434890D01*
X104239699Y-102434890D02*
X104275985Y-102580033D01*
X104275985Y-102580033D02*
X104275985Y-102688890D01*
X104275985Y-102688890D02*
X104239699Y-102834033D01*
X104239699Y-102834033D02*
X104203413Y-102906604D01*
X104203413Y-102906604D02*
X104130842Y-102979176D01*
X104130842Y-102979176D02*
X104021985Y-103015461D01*
X104021985Y-103015461D02*
X103840556Y-103015461D01*
X124523413Y-112703747D02*
X124450842Y-112667461D01*
X124450842Y-112667461D02*
X124341984Y-112667461D01*
X124341984Y-112667461D02*
X124233127Y-112703747D01*
X124233127Y-112703747D02*
X124160556Y-112776318D01*
X124160556Y-112776318D02*
X124124270Y-112848890D01*
X124124270Y-112848890D02*
X124087984Y-112994033D01*
X124087984Y-112994033D02*
X124087984Y-113102890D01*
X124087984Y-113102890D02*
X124124270Y-113248033D01*
X124124270Y-113248033D02*
X124160556Y-113320604D01*
X124160556Y-113320604D02*
X124233127Y-113393176D01*
X124233127Y-113393176D02*
X124341984Y-113429461D01*
X124341984Y-113429461D02*
X124414556Y-113429461D01*
X124414556Y-113429461D02*
X124523413Y-113393176D01*
X124523413Y-113393176D02*
X124559699Y-113356890D01*
X124559699Y-113356890D02*
X124559699Y-113102890D01*
X124559699Y-113102890D02*
X124414556Y-113102890D01*
X124886270Y-113429461D02*
X124886270Y-112667461D01*
X124886270Y-112667461D02*
X125321699Y-113429461D01*
X125321699Y-113429461D02*
X125321699Y-112667461D01*
X125684556Y-113429461D02*
X125684556Y-112667461D01*
X125684556Y-112667461D02*
X125865985Y-112667461D01*
X125865985Y-112667461D02*
X125974842Y-112703747D01*
X125974842Y-112703747D02*
X126047413Y-112776318D01*
X126047413Y-112776318D02*
X126083699Y-112848890D01*
X126083699Y-112848890D02*
X126119985Y-112994033D01*
X126119985Y-112994033D02*
X126119985Y-113102890D01*
X126119985Y-113102890D02*
X126083699Y-113248033D01*
X126083699Y-113248033D02*
X126047413Y-113320604D01*
X126047413Y-113320604D02*
X125974842Y-113393176D01*
X125974842Y-113393176D02*
X125865985Y-113429461D01*
X125865985Y-113429461D02*
X125684556Y-113429461D01*
X123507413Y-107623747D02*
X123434842Y-107587461D01*
X123434842Y-107587461D02*
X123325984Y-107587461D01*
X123325984Y-107587461D02*
X123217127Y-107623747D01*
X123217127Y-107623747D02*
X123144556Y-107696318D01*
X123144556Y-107696318D02*
X123108270Y-107768890D01*
X123108270Y-107768890D02*
X123071984Y-107914033D01*
X123071984Y-107914033D02*
X123071984Y-108022890D01*
X123071984Y-108022890D02*
X123108270Y-108168033D01*
X123108270Y-108168033D02*
X123144556Y-108240604D01*
X123144556Y-108240604D02*
X123217127Y-108313176D01*
X123217127Y-108313176D02*
X123325984Y-108349461D01*
X123325984Y-108349461D02*
X123398556Y-108349461D01*
X123398556Y-108349461D02*
X123507413Y-108313176D01*
X123507413Y-108313176D02*
X123543699Y-108276890D01*
X123543699Y-108276890D02*
X123543699Y-108022890D01*
X123543699Y-108022890D02*
X123398556Y-108022890D01*
X123870270Y-108349461D02*
X123870270Y-107587461D01*
X123870270Y-107587461D02*
X124160556Y-107587461D01*
X124160556Y-107587461D02*
X124233127Y-107623747D01*
X124233127Y-107623747D02*
X124269413Y-107660033D01*
X124269413Y-107660033D02*
X124305699Y-107732604D01*
X124305699Y-107732604D02*
X124305699Y-107841461D01*
X124305699Y-107841461D02*
X124269413Y-107914033D01*
X124269413Y-107914033D02*
X124233127Y-107950318D01*
X124233127Y-107950318D02*
X124160556Y-107986604D01*
X124160556Y-107986604D02*
X123870270Y-107986604D01*
X124632270Y-108349461D02*
X124632270Y-107587461D01*
X125140270Y-107587461D02*
X125285413Y-107587461D01*
X125285413Y-107587461D02*
X125357984Y-107623747D01*
X125357984Y-107623747D02*
X125430556Y-107696318D01*
X125430556Y-107696318D02*
X125466841Y-107841461D01*
X125466841Y-107841461D02*
X125466841Y-108095461D01*
X125466841Y-108095461D02*
X125430556Y-108240604D01*
X125430556Y-108240604D02*
X125357984Y-108313176D01*
X125357984Y-108313176D02*
X125285413Y-108349461D01*
X125285413Y-108349461D02*
X125140270Y-108349461D01*
X125140270Y-108349461D02*
X125067699Y-108313176D01*
X125067699Y-108313176D02*
X124995127Y-108240604D01*
X124995127Y-108240604D02*
X124958841Y-108095461D01*
X124958841Y-108095461D02*
X124958841Y-107841461D01*
X124958841Y-107841461D02*
X124995127Y-107696318D01*
X124995127Y-107696318D02*
X125067699Y-107623747D01*
X125067699Y-107623747D02*
X125140270Y-107587461D01*
X125720842Y-107587461D02*
X126192556Y-107587461D01*
X126192556Y-107587461D02*
X125938556Y-107877747D01*
X125938556Y-107877747D02*
X126047413Y-107877747D01*
X126047413Y-107877747D02*
X126119985Y-107914033D01*
X126119985Y-107914033D02*
X126156270Y-107950318D01*
X126156270Y-107950318D02*
X126192556Y-108022890D01*
X126192556Y-108022890D02*
X126192556Y-108204318D01*
X126192556Y-108204318D02*
X126156270Y-108276890D01*
X126156270Y-108276890D02*
X126119985Y-108313176D01*
X126119985Y-108313176D02*
X126047413Y-108349461D01*
X126047413Y-108349461D02*
X125829699Y-108349461D01*
X125829699Y-108349461D02*
X125757127Y-108313176D01*
X125757127Y-108313176D02*
X125720842Y-108276890D01*
X123507413Y-82223747D02*
X123434842Y-82187461D01*
X123434842Y-82187461D02*
X123325984Y-82187461D01*
X123325984Y-82187461D02*
X123217127Y-82223747D01*
X123217127Y-82223747D02*
X123144556Y-82296318D01*
X123144556Y-82296318D02*
X123108270Y-82368890D01*
X123108270Y-82368890D02*
X123071984Y-82514033D01*
X123071984Y-82514033D02*
X123071984Y-82622890D01*
X123071984Y-82622890D02*
X123108270Y-82768033D01*
X123108270Y-82768033D02*
X123144556Y-82840604D01*
X123144556Y-82840604D02*
X123217127Y-82913176D01*
X123217127Y-82913176D02*
X123325984Y-82949461D01*
X123325984Y-82949461D02*
X123398556Y-82949461D01*
X123398556Y-82949461D02*
X123507413Y-82913176D01*
X123507413Y-82913176D02*
X123543699Y-82876890D01*
X123543699Y-82876890D02*
X123543699Y-82622890D01*
X123543699Y-82622890D02*
X123398556Y-82622890D01*
X123870270Y-82949461D02*
X123870270Y-82187461D01*
X123870270Y-82187461D02*
X124160556Y-82187461D01*
X124160556Y-82187461D02*
X124233127Y-82223747D01*
X124233127Y-82223747D02*
X124269413Y-82260033D01*
X124269413Y-82260033D02*
X124305699Y-82332604D01*
X124305699Y-82332604D02*
X124305699Y-82441461D01*
X124305699Y-82441461D02*
X124269413Y-82514033D01*
X124269413Y-82514033D02*
X124233127Y-82550318D01*
X124233127Y-82550318D02*
X124160556Y-82586604D01*
X124160556Y-82586604D02*
X123870270Y-82586604D01*
X124632270Y-82949461D02*
X124632270Y-82187461D01*
X125140270Y-82187461D02*
X125285413Y-82187461D01*
X125285413Y-82187461D02*
X125357984Y-82223747D01*
X125357984Y-82223747D02*
X125430556Y-82296318D01*
X125430556Y-82296318D02*
X125466841Y-82441461D01*
X125466841Y-82441461D02*
X125466841Y-82695461D01*
X125466841Y-82695461D02*
X125430556Y-82840604D01*
X125430556Y-82840604D02*
X125357984Y-82913176D01*
X125357984Y-82913176D02*
X125285413Y-82949461D01*
X125285413Y-82949461D02*
X125140270Y-82949461D01*
X125140270Y-82949461D02*
X125067699Y-82913176D01*
X125067699Y-82913176D02*
X124995127Y-82840604D01*
X124995127Y-82840604D02*
X124958841Y-82695461D01*
X124958841Y-82695461D02*
X124958841Y-82441461D01*
X124958841Y-82441461D02*
X124995127Y-82296318D01*
X124995127Y-82296318D02*
X125067699Y-82223747D01*
X125067699Y-82223747D02*
X125140270Y-82187461D01*
X126156270Y-82187461D02*
X125793413Y-82187461D01*
X125793413Y-82187461D02*
X125757127Y-82550318D01*
X125757127Y-82550318D02*
X125793413Y-82514033D01*
X125793413Y-82514033D02*
X125865985Y-82477747D01*
X125865985Y-82477747D02*
X126047413Y-82477747D01*
X126047413Y-82477747D02*
X126119985Y-82514033D01*
X126119985Y-82514033D02*
X126156270Y-82550318D01*
X126156270Y-82550318D02*
X126192556Y-82622890D01*
X126192556Y-82622890D02*
X126192556Y-82804318D01*
X126192556Y-82804318D02*
X126156270Y-82876890D01*
X126156270Y-82876890D02*
X126119985Y-82913176D01*
X126119985Y-82913176D02*
X126047413Y-82949461D01*
X126047413Y-82949461D02*
X125865985Y-82949461D01*
X125865985Y-82949461D02*
X125793413Y-82913176D01*
X125793413Y-82913176D02*
X125757127Y-82876890D01*
D10*
X96624819Y-102356666D02*
X96148628Y-102689999D01*
X96624819Y-102928094D02*
X95624819Y-102928094D01*
X95624819Y-102928094D02*
X95624819Y-102547142D01*
X95624819Y-102547142D02*
X95672438Y-102451904D01*
X95672438Y-102451904D02*
X95720057Y-102404285D01*
X95720057Y-102404285D02*
X95815295Y-102356666D01*
X95815295Y-102356666D02*
X95958152Y-102356666D01*
X95958152Y-102356666D02*
X96053390Y-102404285D01*
X96053390Y-102404285D02*
X96101009Y-102451904D01*
X96101009Y-102451904D02*
X96148628Y-102547142D01*
X96148628Y-102547142D02*
X96148628Y-102928094D01*
X96624819Y-101404285D02*
X96624819Y-101975713D01*
X96624819Y-101689999D02*
X95624819Y-101689999D01*
X95624819Y-101689999D02*
X95767676Y-101785237D01*
X95767676Y-101785237D02*
X95862914Y-101880475D01*
X95862914Y-101880475D02*
X95910533Y-101975713D01*
X84928095Y-109654819D02*
X84928095Y-110464342D01*
X84928095Y-110464342D02*
X84975714Y-110559580D01*
X84975714Y-110559580D02*
X85023333Y-110607200D01*
X85023333Y-110607200D02*
X85118571Y-110654819D01*
X85118571Y-110654819D02*
X85309047Y-110654819D01*
X85309047Y-110654819D02*
X85404285Y-110607200D01*
X85404285Y-110607200D02*
X85451904Y-110559580D01*
X85451904Y-110559580D02*
X85499523Y-110464342D01*
X85499523Y-110464342D02*
X85499523Y-109654819D01*
X85880476Y-109654819D02*
X86499523Y-109654819D01*
X86499523Y-109654819D02*
X86166190Y-110035771D01*
X86166190Y-110035771D02*
X86309047Y-110035771D01*
X86309047Y-110035771D02*
X86404285Y-110083390D01*
X86404285Y-110083390D02*
X86451904Y-110131009D01*
X86451904Y-110131009D02*
X86499523Y-110226247D01*
X86499523Y-110226247D02*
X86499523Y-110464342D01*
X86499523Y-110464342D02*
X86451904Y-110559580D01*
X86451904Y-110559580D02*
X86404285Y-110607200D01*
X86404285Y-110607200D02*
X86309047Y-110654819D01*
X86309047Y-110654819D02*
X86023333Y-110654819D01*
X86023333Y-110654819D02*
X85928095Y-110607200D01*
X85928095Y-110607200D02*
X85880476Y-110559580D01*
D13*
X112984000Y-133179946D02*
X113092858Y-133216231D01*
X113092858Y-133216231D02*
X113274286Y-133216231D01*
X113274286Y-133216231D02*
X113346858Y-133179946D01*
X113346858Y-133179946D02*
X113383143Y-133143660D01*
X113383143Y-133143660D02*
X113419429Y-133071088D01*
X113419429Y-133071088D02*
X113419429Y-132998517D01*
X113419429Y-132998517D02*
X113383143Y-132925946D01*
X113383143Y-132925946D02*
X113346858Y-132889660D01*
X113346858Y-132889660D02*
X113274286Y-132853374D01*
X113274286Y-132853374D02*
X113129143Y-132817088D01*
X113129143Y-132817088D02*
X113056572Y-132780803D01*
X113056572Y-132780803D02*
X113020286Y-132744517D01*
X113020286Y-132744517D02*
X112984000Y-132671946D01*
X112984000Y-132671946D02*
X112984000Y-132599374D01*
X112984000Y-132599374D02*
X113020286Y-132526803D01*
X113020286Y-132526803D02*
X113056572Y-132490517D01*
X113056572Y-132490517D02*
X113129143Y-132454231D01*
X113129143Y-132454231D02*
X113310572Y-132454231D01*
X113310572Y-132454231D02*
X113419429Y-132490517D01*
X113673429Y-132454231D02*
X113854857Y-133216231D01*
X113854857Y-133216231D02*
X114000000Y-132671946D01*
X114000000Y-132671946D02*
X114145143Y-133216231D01*
X114145143Y-133216231D02*
X114326572Y-132454231D01*
X115016000Y-133216231D02*
X114580571Y-133216231D01*
X114798286Y-133216231D02*
X114798286Y-132454231D01*
X114798286Y-132454231D02*
X114725714Y-132563088D01*
X114725714Y-132563088D02*
X114653143Y-132635660D01*
X114653143Y-132635660D02*
X114580571Y-132671946D01*
D14*
X143452295Y-113683714D02*
X143452295Y-114159904D01*
X143166580Y-113588476D02*
X144166580Y-113921809D01*
X144166580Y-113921809D02*
X143166580Y-114255142D01*
X143166580Y-115112285D02*
X143166580Y-114540857D01*
X143166580Y-114826571D02*
X144166580Y-114826571D01*
X144166580Y-114826571D02*
X144023723Y-114731333D01*
X144023723Y-114731333D02*
X143928485Y-114636095D01*
X143928485Y-114636095D02*
X143880866Y-114540857D01*
X147037580Y-106764360D02*
X147037580Y-106954836D01*
X147037580Y-106954836D02*
X146989961Y-107050074D01*
X146989961Y-107050074D02*
X146894723Y-107145312D01*
X146894723Y-107145312D02*
X146704247Y-107192931D01*
X146704247Y-107192931D02*
X146370914Y-107192931D01*
X146370914Y-107192931D02*
X146180438Y-107145312D01*
X146180438Y-107145312D02*
X146085200Y-107050074D01*
X146085200Y-107050074D02*
X146037580Y-106954836D01*
X146037580Y-106954836D02*
X146037580Y-106764360D01*
X146037580Y-106764360D02*
X146085200Y-106669122D01*
X146085200Y-106669122D02*
X146180438Y-106573884D01*
X146180438Y-106573884D02*
X146370914Y-106526265D01*
X146370914Y-106526265D02*
X146704247Y-106526265D01*
X146704247Y-106526265D02*
X146894723Y-106573884D01*
X146894723Y-106573884D02*
X146989961Y-106669122D01*
X146989961Y-106669122D02*
X147037580Y-106764360D01*
X147037580Y-107621503D02*
X146228057Y-107621503D01*
X146228057Y-107621503D02*
X146132819Y-107669122D01*
X146132819Y-107669122D02*
X146085200Y-107716741D01*
X146085200Y-107716741D02*
X146037580Y-107811979D01*
X146037580Y-107811979D02*
X146037580Y-108002455D01*
X146037580Y-108002455D02*
X146085200Y-108097693D01*
X146085200Y-108097693D02*
X146132819Y-108145312D01*
X146132819Y-108145312D02*
X146228057Y-108192931D01*
X146228057Y-108192931D02*
X147037580Y-108192931D01*
X147037580Y-108526265D02*
X147037580Y-109097693D01*
X146037580Y-108811979D02*
X147037580Y-108811979D01*
X146418533Y-109431027D02*
X146418533Y-110192932D01*
X146037580Y-109811979D02*
X146799485Y-109811979D01*
X146037580Y-119781884D02*
X147037580Y-119781884D01*
X146037580Y-120258074D02*
X147037580Y-120258074D01*
X147037580Y-120258074D02*
X146037580Y-120829502D01*
X146037580Y-120829502D02*
X147037580Y-120829502D01*
X146418533Y-121305693D02*
X146418533Y-122067598D01*
X146037580Y-121686645D02*
X146799485Y-121686645D01*
X132829580Y-119781884D02*
X133829580Y-119781884D01*
X132829580Y-120258074D02*
X133829580Y-120258074D01*
X133829580Y-120258074D02*
X132829580Y-120829502D01*
X132829580Y-120829502D02*
X133829580Y-120829502D01*
X133210533Y-121305693D02*
X133210533Y-122067598D01*
X133829580Y-107018360D02*
X133829580Y-107208836D01*
X133829580Y-107208836D02*
X133781961Y-107304074D01*
X133781961Y-107304074D02*
X133686723Y-107399312D01*
X133686723Y-107399312D02*
X133496247Y-107446931D01*
X133496247Y-107446931D02*
X133162914Y-107446931D01*
X133162914Y-107446931D02*
X132972438Y-107399312D01*
X132972438Y-107399312D02*
X132877200Y-107304074D01*
X132877200Y-107304074D02*
X132829580Y-107208836D01*
X132829580Y-107208836D02*
X132829580Y-107018360D01*
X132829580Y-107018360D02*
X132877200Y-106923122D01*
X132877200Y-106923122D02*
X132972438Y-106827884D01*
X132972438Y-106827884D02*
X133162914Y-106780265D01*
X133162914Y-106780265D02*
X133496247Y-106780265D01*
X133496247Y-106780265D02*
X133686723Y-106827884D01*
X133686723Y-106827884D02*
X133781961Y-106923122D01*
X133781961Y-106923122D02*
X133829580Y-107018360D01*
X133829580Y-107875503D02*
X133020057Y-107875503D01*
X133020057Y-107875503D02*
X132924819Y-107923122D01*
X132924819Y-107923122D02*
X132877200Y-107970741D01*
X132877200Y-107970741D02*
X132829580Y-108065979D01*
X132829580Y-108065979D02*
X132829580Y-108256455D01*
X132829580Y-108256455D02*
X132877200Y-108351693D01*
X132877200Y-108351693D02*
X132924819Y-108399312D01*
X132924819Y-108399312D02*
X133020057Y-108446931D01*
X133020057Y-108446931D02*
X133829580Y-108446931D01*
X133829580Y-108780265D02*
X133829580Y-109351693D01*
X132829580Y-109065979D02*
X133829580Y-109065979D01*
X133210533Y-109685027D02*
X133210533Y-110446932D01*
D10*
X141833333Y-102109580D02*
X141785714Y-102157200D01*
X141785714Y-102157200D02*
X141642857Y-102204819D01*
X141642857Y-102204819D02*
X141547619Y-102204819D01*
X141547619Y-102204819D02*
X141404762Y-102157200D01*
X141404762Y-102157200D02*
X141309524Y-102061961D01*
X141309524Y-102061961D02*
X141261905Y-101966723D01*
X141261905Y-101966723D02*
X141214286Y-101776247D01*
X141214286Y-101776247D02*
X141214286Y-101633390D01*
X141214286Y-101633390D02*
X141261905Y-101442914D01*
X141261905Y-101442914D02*
X141309524Y-101347676D01*
X141309524Y-101347676D02*
X141404762Y-101252438D01*
X141404762Y-101252438D02*
X141547619Y-101204819D01*
X141547619Y-101204819D02*
X141642857Y-101204819D01*
X141642857Y-101204819D02*
X141785714Y-101252438D01*
X141785714Y-101252438D02*
X141833333Y-101300057D01*
X142214286Y-101300057D02*
X142261905Y-101252438D01*
X142261905Y-101252438D02*
X142357143Y-101204819D01*
X142357143Y-101204819D02*
X142595238Y-101204819D01*
X142595238Y-101204819D02*
X142690476Y-101252438D01*
X142690476Y-101252438D02*
X142738095Y-101300057D01*
X142738095Y-101300057D02*
X142785714Y-101395295D01*
X142785714Y-101395295D02*
X142785714Y-101490533D01*
X142785714Y-101490533D02*
X142738095Y-101633390D01*
X142738095Y-101633390D02*
X142166667Y-102204819D01*
X142166667Y-102204819D02*
X142785714Y-102204819D01*
D15*
%TO.C,J2*%
X131375000Y-75570000D02*
X147395000Y-75570000D01*
X131375000Y-91280000D02*
X131375000Y-79350000D01*
X131375000Y-91280000D02*
X147395000Y-91280000D01*
X147395000Y-91280000D02*
X147395000Y-79350000D01*
X147763000Y-87000000D02*
X148271000Y-87508000D01*
X148271000Y-86492000D02*
X147763000Y-87000000D01*
X148271000Y-87508000D02*
X148271000Y-86492000D01*
%TO.C,C1*%
X81130000Y-111880000D02*
X92370000Y-111880000D01*
X81130000Y-113426000D02*
X81130000Y-111880000D01*
X81130000Y-117120000D02*
X81130000Y-115574000D01*
X92370000Y-111880000D02*
X92370000Y-113426000D01*
X92370000Y-115574000D02*
X92370000Y-117120000D01*
X92370000Y-117120000D02*
X81130000Y-117120000D01*
%TO.C,C3*%
X134335000Y-95483812D02*
X134335000Y-95933812D01*
X134560000Y-95708812D02*
X134110000Y-95708812D01*
X134060000Y-95901359D02*
G75*
G02*
X131940000Y-95901359I-1060000J-2119741D01*
G01*
%TO.C,J1*%
X80490000Y-75725000D02*
X96510000Y-75725000D01*
X80490000Y-91435000D02*
X80490000Y-79505000D01*
X80490000Y-91435000D02*
X96510000Y-91435000D01*
X96510000Y-91435000D02*
X96510000Y-79505000D01*
X96878000Y-87155000D02*
X97386000Y-87663000D01*
X97386000Y-86647000D02*
X96878000Y-87155000D01*
X97386000Y-87663000D02*
X97386000Y-86647000D01*
D14*
%TO.C,U1*%
X98220363Y-78095000D02*
X98223638Y-120640000D01*
X98222000Y-120640000D02*
X100762000Y-123180000D01*
D15*
X98595000Y-117084000D02*
X101335000Y-117084000D01*
X98630000Y-78630000D02*
X98595000Y-117084000D01*
D14*
X100762000Y-123180000D02*
X127165175Y-123180000D01*
X100892664Y-75555000D02*
X127159949Y-75555000D01*
D15*
X101370000Y-78630000D02*
X98630000Y-78630000D01*
X101370000Y-117084000D02*
X101370000Y-78630000D01*
X104826000Y-115922000D02*
X122606000Y-115922000D01*
X104826000Y-123180000D02*
X104826000Y-115922000D01*
X105715000Y-76190000D02*
X108255000Y-76190000D01*
X105715000Y-80000000D02*
X105715000Y-76190000D01*
X106096000Y-122418000D02*
X106096000Y-118862000D01*
X106350000Y-97272000D02*
X121350000Y-97272000D01*
X106350000Y-115272000D02*
X106350000Y-97272000D01*
X108255000Y-76190000D02*
X108255000Y-80000000D01*
X108255000Y-80000000D02*
X105715000Y-80000000D01*
X108636000Y-122418000D02*
X108636000Y-118862000D01*
D14*
X110795000Y-75555000D02*
X110795000Y-81270000D01*
D15*
X111176000Y-120386000D02*
X111176000Y-122418000D01*
X111176000Y-122418000D02*
X106096000Y-122418000D01*
X113716000Y-120386000D02*
X111176000Y-120386000D01*
X113716000Y-122418000D02*
X113716000Y-120386000D01*
X116256000Y-120386000D02*
X116256000Y-122418000D01*
X116256000Y-122418000D02*
X113716000Y-122418000D01*
X118415000Y-81270000D02*
X110795000Y-81270000D01*
D14*
X118415000Y-81270000D02*
X118415000Y-75555000D01*
D15*
X118796000Y-120386000D02*
X116256000Y-120386000D01*
X118796000Y-122418000D02*
X118796000Y-120386000D01*
D14*
X119240000Y-75555000D02*
X111430000Y-75555000D01*
D15*
X121336000Y-117338000D02*
X121336000Y-122418000D01*
X121336000Y-122418000D02*
X118796000Y-122418000D01*
X121350000Y-97272000D02*
X121350000Y-115272000D01*
X121350000Y-115272000D02*
X106350000Y-115272000D01*
X121590000Y-76190000D02*
X124130000Y-76190000D01*
X121590000Y-80000000D02*
X121590000Y-76190000D01*
X122606000Y-115922000D02*
X122606000Y-123180000D01*
X124130000Y-76190000D02*
X124130000Y-80000000D01*
X124130000Y-80000000D02*
X121590000Y-80000000D01*
X126650000Y-117184000D02*
X129390000Y-117184000D01*
X126670000Y-78730000D02*
X126650000Y-117184000D01*
X129390000Y-117184000D02*
X129410000Y-78730000D01*
X129410000Y-78730000D02*
X126670000Y-78730000D01*
D14*
X129705175Y-78095000D02*
X129730825Y-120640000D01*
X129730825Y-120640000D02*
X127165175Y-123180000D01*
X98220363Y-78095000D02*
G75*
G02*
X100763638Y-75551725I2543275J0D01*
G01*
X127159949Y-75555000D02*
G75*
G02*
X129699950Y-78095000I1J-2540000D01*
G01*
D16*
X107285000Y-78095000D02*
G75*
G02*
X106685000Y-78095000I-300000J0D01*
G01*
X106685000Y-78095000D02*
G75*
G02*
X107285000Y-78095000I300000J0D01*
G01*
D17*
X119330000Y-99412000D02*
G75*
G02*
X118530000Y-99412000I-400000J0D01*
G01*
X118530000Y-99412000D02*
G75*
G02*
X119330000Y-99412000I400000J0D01*
G01*
D16*
X123160000Y-78095000D02*
G75*
G02*
X122560000Y-78095000I-300000J0D01*
G01*
X122560000Y-78095000D02*
G75*
G02*
X123160000Y-78095000I300000J0D01*
G01*
D15*
%TO.C,R1*%
X94250000Y-99320000D02*
X94250000Y-100270000D01*
X94250000Y-105060000D02*
X94250000Y-104110000D01*
X95170000Y-100270000D02*
X93330000Y-100270000D01*
X93330000Y-104110000D01*
X95170000Y-104110000D01*
X95170000Y-100270000D01*
%TO.C,U3*%
X83440000Y-98920000D02*
X83440000Y-109200000D01*
X83440000Y-109200000D02*
X84690000Y-109200000D01*
X86690000Y-109200000D02*
X87940000Y-109200000D01*
X87940000Y-98920000D02*
X83440000Y-98920000D01*
X87940000Y-109200000D02*
X87940000Y-98920000D01*
X84690000Y-109200000D02*
G75*
G02*
X86690000Y-109200000I1000000J0D01*
G01*
%TO.C,SW1*%
X108785000Y-129585000D02*
X108785000Y-128585000D01*
X109035000Y-138275000D02*
X109035000Y-128835000D01*
X109785000Y-128585000D02*
X108785000Y-128585000D01*
X112105000Y-131855000D02*
X112105000Y-135155000D01*
X115905000Y-131855000D02*
X112105000Y-131855000D01*
X115905000Y-131855000D02*
X115905000Y-135155000D01*
X115905000Y-135155000D02*
X112105000Y-135155000D01*
X119075000Y-128835000D02*
X109035000Y-128835000D01*
X119075000Y-138275000D02*
X109035000Y-138275000D01*
X119075000Y-138275000D02*
X119075000Y-128835000D01*
%TO.C,A1*%
D14*
X148196000Y-103222000D02*
X131432000Y-103222000D01*
X131432000Y-125320000D01*
X148196000Y-125320000D01*
X148196000Y-103222000D01*
D15*
%TO.C,C2*%
X137130000Y-95380000D02*
X148370000Y-95380000D01*
X137130000Y-96926000D02*
X137130000Y-95380000D01*
X137130000Y-100620000D02*
X137130000Y-99074000D01*
X148370000Y-95380000D02*
X148370000Y-96926000D01*
X148370000Y-99074000D02*
X148370000Y-100620000D01*
X148370000Y-100620000D02*
X137130000Y-100620000D01*
%TD*%
M02*
