%TF.GenerationSoftware,KiCad,Pcbnew,9.0.6*%
%TF.CreationDate,2025-12-01T16:28:18+01:00*%
%TF.ProjectId,Wavin-AHC-9000-mqtt,57617669-6e2d-4414-9843-2d393030302d,rev?*%
%TF.SameCoordinates,Original*%
%TF.FileFunction,Soldermask,Bot*%
%TF.FilePolarity,Negative*%
%FSLAX46Y46*%
G04 Gerber Fmt 4.6, Leading zero omitted, Abs format (unit mm)*
G04 Created by KiCad (PCBNEW 9.0.6) date 2025-12-01 16:28:18*
%MOMM*%
%LPD*%
G01*
G04 APERTURE LIST*
G04 Aperture macros list*
%AMRoundRect*
0 Rectangle with rounded corners*
0 $1 Rounding radius*
0 $2 $3 $4 $5 $6 $7 $8 $9 X,Y pos of 4 corners*
0 Add a 4 corners polygon primitive as box body*
4,1,4,$2,$3,$4,$5,$6,$7,$8,$9,$2,$3,0*
0 Add four circle primitives for the rounded corners*
1,1,$1+$1,$2,$3*
1,1,$1+$1,$4,$5*
1,1,$1+$1,$6,$7*
1,1,$1+$1,$8,$9*
0 Add four rect primitives between the rounded corners*
20,1,$1+$1,$2,$3,$4,$5,0*
20,1,$1+$1,$4,$5,$6,$7,0*
20,1,$1+$1,$6,$7,$8,$9,0*
20,1,$1+$1,$8,$9,$2,$3,0*%
G04 Aperture macros list end*
%ADD10C,3.250000*%
%ADD11R,1.500000X1.500000*%
%ADD12C,1.500000*%
%ADD13C,3.000000*%
%ADD14C,2.000000*%
%ADD15RoundRect,0.250000X-0.550000X0.550000X-0.550000X-0.550000X0.550000X-0.550000X0.550000X0.550000X0*%
%ADD16C,1.600000*%
%ADD17R,2.100000X1.900000*%
%ADD18O,2.100000X1.900000*%
%ADD19C,1.400000*%
%ADD20RoundRect,0.250000X0.950000X0.550000X-0.950000X0.550000X-0.950000X-0.550000X0.950000X-0.550000X0*%
%ADD21O,2.400000X1.600000*%
%ADD22R,1.800000X1.800000*%
%ADD23C,1.800000*%
%ADD24R,2.032000X2.540000*%
G04 APERTURE END LIST*
D10*
%TO.C,J2*%
X145100000Y-80650000D03*
X133670000Y-80650000D03*
D11*
X143830000Y-87000000D03*
D12*
X142560000Y-89540000D03*
X141290000Y-87000000D03*
X140020000Y-89540000D03*
X138750000Y-87000000D03*
X137480000Y-89540000D03*
X136210000Y-87000000D03*
X134940000Y-89540000D03*
D13*
X147155000Y-77600000D03*
X131615000Y-77600000D03*
%TD*%
D14*
%TO.C,C1*%
X81750000Y-114500000D03*
X91750000Y-114500000D03*
%TD*%
D15*
%TO.C,C3*%
X133000000Y-96771100D03*
D16*
X133000000Y-99271100D03*
%TD*%
D10*
%TO.C,J1*%
X94215000Y-80805000D03*
X82785000Y-80805000D03*
D11*
X92945000Y-87155000D03*
D12*
X91675000Y-89695000D03*
X90405000Y-87155000D03*
X89135000Y-89695000D03*
X87865000Y-87155000D03*
X86595000Y-89695000D03*
X85325000Y-87155000D03*
X84055000Y-89695000D03*
D13*
X96270000Y-77755000D03*
X80730000Y-77755000D03*
%TD*%
D17*
%TO.C,U1*%
X100000000Y-80000000D03*
D18*
X100000000Y-82540000D03*
X100000000Y-85080000D03*
X100000000Y-87620000D03*
X100000000Y-90160000D03*
X100000000Y-92700000D03*
X100000000Y-95240000D03*
X100000000Y-97780000D03*
X100000000Y-100320000D03*
X100000000Y-102860000D03*
X100000000Y-105400000D03*
X100000000Y-107940000D03*
X100000000Y-110480000D03*
X100000000Y-113020000D03*
X100000000Y-115560000D03*
X127940000Y-115560000D03*
X127940000Y-113020000D03*
X127940000Y-110480000D03*
X127940000Y-107940000D03*
X127940000Y-105400000D03*
X127940000Y-102860000D03*
X127940000Y-100320000D03*
X127940000Y-97780000D03*
X127940000Y-95240000D03*
X127940000Y-92700000D03*
X127940000Y-90160000D03*
X127940000Y-87620000D03*
X127940000Y-85080000D03*
X127940000Y-82540000D03*
D17*
X127940000Y-80000000D03*
%TD*%
D19*
%TO.C,R1*%
X94250000Y-98380000D03*
X94250000Y-106000000D03*
%TD*%
D20*
%TO.C,U3*%
X89500000Y-107870000D03*
D21*
X89500000Y-105330000D03*
X89500000Y-102790000D03*
X89500000Y-100250000D03*
X81880000Y-100250000D03*
X81880000Y-102790000D03*
X81880000Y-105330000D03*
X81880000Y-107870000D03*
%TD*%
D22*
%TO.C,SW1*%
X111555000Y-130555000D03*
D23*
X114055000Y-130555000D03*
X116555000Y-130555000D03*
X111555000Y-136555000D03*
X114055000Y-136555000D03*
X116555000Y-136555000D03*
%TD*%
D24*
%TO.C,A1*%
X146418000Y-123542000D03*
X143878000Y-123542000D03*
X135750000Y-123542000D03*
X133210000Y-123542000D03*
X146418000Y-105000000D03*
X143878000Y-105000000D03*
X135750000Y-105000000D03*
X133210000Y-105000000D03*
%TD*%
D14*
%TO.C,C2*%
X137750000Y-98000000D03*
X147750000Y-98000000D03*
%TD*%
M02*
