%TF.GenerationSoftware,KiCad,Pcbnew,9.0.6*%
%TF.CreationDate,2025-12-01T16:28:18+01:00*%
%TF.ProjectId,Wavin-AHC-9000-mqtt,57617669-6e2d-4414-9843-2d393030302d,rev?*%
%TF.SameCoordinates,Original*%
%TF.FileFunction,Legend,Bot*%
%TF.FilePolarity,Positive*%
%FSLAX46Y46*%
G04 Gerber Fmt 4.6, Leading zero omitted, Abs format (unit mm)*
G04 Created by KiCad (PCBNEW 9.0.6) date 2025-12-01 16:28:18*
%MOMM*%
%LPD*%
G01*
G04 APERTURE LIST*
%ADD10C,0.100000*%
G04 APERTURE END LIST*
D10*
X146037580Y-121968115D02*
X147037580Y-121968115D01*
X146037580Y-121491925D02*
X147037580Y-121491925D01*
X147037580Y-121491925D02*
X146037580Y-120920497D01*
X146037580Y-120920497D02*
X147037580Y-120920497D01*
X146418533Y-120444306D02*
X146418533Y-119682402D01*
X146037580Y-120063354D02*
X146799485Y-120063354D01*
X132829580Y-121968115D02*
X133829580Y-121968115D01*
X132829580Y-121491925D02*
X133829580Y-121491925D01*
X133829580Y-121491925D02*
X132829580Y-120920497D01*
X132829580Y-120920497D02*
X133829580Y-120920497D01*
X133210533Y-120444306D02*
X133210533Y-119682402D01*
X133829580Y-110093639D02*
X133829580Y-109903163D01*
X133829580Y-109903163D02*
X133781961Y-109807925D01*
X133781961Y-109807925D02*
X133686723Y-109712687D01*
X133686723Y-109712687D02*
X133496247Y-109665068D01*
X133496247Y-109665068D02*
X133162914Y-109665068D01*
X133162914Y-109665068D02*
X132972438Y-109712687D01*
X132972438Y-109712687D02*
X132877200Y-109807925D01*
X132877200Y-109807925D02*
X132829580Y-109903163D01*
X132829580Y-109903163D02*
X132829580Y-110093639D01*
X132829580Y-110093639D02*
X132877200Y-110188877D01*
X132877200Y-110188877D02*
X132972438Y-110284115D01*
X132972438Y-110284115D02*
X133162914Y-110331734D01*
X133162914Y-110331734D02*
X133496247Y-110331734D01*
X133496247Y-110331734D02*
X133686723Y-110284115D01*
X133686723Y-110284115D02*
X133781961Y-110188877D01*
X133781961Y-110188877D02*
X133829580Y-110093639D01*
X133829580Y-109236496D02*
X133020057Y-109236496D01*
X133020057Y-109236496D02*
X132924819Y-109188877D01*
X132924819Y-109188877D02*
X132877200Y-109141258D01*
X132877200Y-109141258D02*
X132829580Y-109046020D01*
X132829580Y-109046020D02*
X132829580Y-108855544D01*
X132829580Y-108855544D02*
X132877200Y-108760306D01*
X132877200Y-108760306D02*
X132924819Y-108712687D01*
X132924819Y-108712687D02*
X133020057Y-108665068D01*
X133020057Y-108665068D02*
X133829580Y-108665068D01*
X133829580Y-108331734D02*
X133829580Y-107760306D01*
X132829580Y-108046020D02*
X133829580Y-108046020D01*
X133210533Y-107426972D02*
X133210533Y-106665068D01*
X147037580Y-114157639D02*
X147037580Y-113967163D01*
X147037580Y-113967163D02*
X146989961Y-113871925D01*
X146989961Y-113871925D02*
X146894723Y-113776687D01*
X146894723Y-113776687D02*
X146704247Y-113729068D01*
X146704247Y-113729068D02*
X146370914Y-113729068D01*
X146370914Y-113729068D02*
X146180438Y-113776687D01*
X146180438Y-113776687D02*
X146085200Y-113871925D01*
X146085200Y-113871925D02*
X146037580Y-113967163D01*
X146037580Y-113967163D02*
X146037580Y-114157639D01*
X146037580Y-114157639D02*
X146085200Y-114252877D01*
X146085200Y-114252877D02*
X146180438Y-114348115D01*
X146180438Y-114348115D02*
X146370914Y-114395734D01*
X146370914Y-114395734D02*
X146704247Y-114395734D01*
X146704247Y-114395734D02*
X146894723Y-114348115D01*
X146894723Y-114348115D02*
X146989961Y-114252877D01*
X146989961Y-114252877D02*
X147037580Y-114157639D01*
X147037580Y-113300496D02*
X146228057Y-113300496D01*
X146228057Y-113300496D02*
X146132819Y-113252877D01*
X146132819Y-113252877D02*
X146085200Y-113205258D01*
X146085200Y-113205258D02*
X146037580Y-113110020D01*
X146037580Y-113110020D02*
X146037580Y-112919544D01*
X146037580Y-112919544D02*
X146085200Y-112824306D01*
X146085200Y-112824306D02*
X146132819Y-112776687D01*
X146132819Y-112776687D02*
X146228057Y-112729068D01*
X146228057Y-112729068D02*
X147037580Y-112729068D01*
X147037580Y-112395734D02*
X147037580Y-111824306D01*
X146037580Y-112110020D02*
X147037580Y-112110020D01*
X146418533Y-111490972D02*
X146418533Y-110729068D01*
X146037580Y-111110020D02*
X146799485Y-111110020D01*
X147037580Y-109586210D02*
X147037580Y-108967163D01*
X147037580Y-108967163D02*
X146656628Y-109300496D01*
X146656628Y-109300496D02*
X146656628Y-109157639D01*
X146656628Y-109157639D02*
X146609009Y-109062401D01*
X146609009Y-109062401D02*
X146561390Y-109014782D01*
X146561390Y-109014782D02*
X146466152Y-108967163D01*
X146466152Y-108967163D02*
X146228057Y-108967163D01*
X146228057Y-108967163D02*
X146132819Y-109014782D01*
X146132819Y-109014782D02*
X146085200Y-109062401D01*
X146085200Y-109062401D02*
X146037580Y-109157639D01*
X146037580Y-109157639D02*
X146037580Y-109443353D01*
X146037580Y-109443353D02*
X146085200Y-109538591D01*
X146085200Y-109538591D02*
X146132819Y-109586210D01*
X146085200Y-108490972D02*
X146037580Y-108490972D01*
X146037580Y-108490972D02*
X145942342Y-108538591D01*
X145942342Y-108538591D02*
X145894723Y-108586210D01*
X147037580Y-108157639D02*
X147037580Y-107538592D01*
X147037580Y-107538592D02*
X146656628Y-107871925D01*
X146656628Y-107871925D02*
X146656628Y-107729068D01*
X146656628Y-107729068D02*
X146609009Y-107633830D01*
X146609009Y-107633830D02*
X146561390Y-107586211D01*
X146561390Y-107586211D02*
X146466152Y-107538592D01*
X146466152Y-107538592D02*
X146228057Y-107538592D01*
X146228057Y-107538592D02*
X146132819Y-107586211D01*
X146132819Y-107586211D02*
X146085200Y-107633830D01*
X146085200Y-107633830D02*
X146037580Y-107729068D01*
X146037580Y-107729068D02*
X146037580Y-108014782D01*
X146037580Y-108014782D02*
X146085200Y-108110020D01*
X146085200Y-108110020D02*
X146132819Y-108157639D01*
X147037580Y-107252877D02*
X146037580Y-106919544D01*
X146037580Y-106919544D02*
X147037580Y-106586211D01*
M02*
