M48
; DRILL file {KiCad 9.0.6} date 2025-12-01T16:28:26+0100
; FORMAT={-:-/ absolute / metric / decimal}
; #@! TF.CreationDate,2025-12-01T16:28:26+01:00
; #@! TF.GenerationSoftware,Kicad,Pcbnew,9.0.6
; #@! TF.FileFunction,Plated,1,2,PTH
FMAT,2
METRIC
; #@! TA.AperFunction,Plated,PTH,ViaDrill
T1C0.400
; #@! TA.AperFunction,Plated,PTH,ComponentDrill
T2C0.700
; #@! TA.AperFunction,Plated,PTH,ComponentDrill
T3C0.800
; #@! TA.AperFunction,Plated,PTH,ComponentDrill
T4C0.900
; #@! TA.AperFunction,Plated,PTH,ComponentDrill
T5C1.000
; #@! TA.AperFunction,Plated,PTH,ComponentDrill
T6C1.016
; #@! TA.AperFunction,Plated,PTH,ComponentDrill
T7C1.020
; #@! TA.AperFunction,Plated,PTH,ComponentDrill
T8C1.600
%
G90
G05
T1
X84.25Y-123.4
X90.0Y-128.25
X103.487Y-107.927
X104.25Y-81.0
X104.25Y-102.5
X106.5Y-107.94
X108.394Y-104.044
X108.5Y-97.625
X113.25Y-102.5
X135.45Y-127.8
T2
X94.25Y-98.38
X94.25Y-106.0
T3
X81.88Y-100.25
X81.88Y-102.79
X81.88Y-105.33
X81.88Y-107.87
X89.5Y-100.25
X89.5Y-102.79
X89.5Y-105.33
X89.5Y-107.87
X133.0Y-96.771
X133.0Y-99.271
T4
X84.055Y-89.695
X85.325Y-87.155
X86.595Y-89.695
X87.865Y-87.155
X89.135Y-89.695
X90.405Y-87.155
X91.675Y-89.695
X92.945Y-87.155
X111.555Y-130.555
X111.555Y-136.555
X114.055Y-130.555
X114.055Y-136.555
X116.555Y-130.555
X116.555Y-136.555
X134.94Y-89.54
X136.21Y-87.0
X137.48Y-89.54
X138.75Y-87.0
X140.02Y-89.54
X141.29Y-87.0
X142.56Y-89.54
X143.83Y-87.0
T5
X81.75Y-114.5
X91.75Y-114.5
X137.75Y-98.0
X147.75Y-98.0
T6
X133.21Y-105.0
X133.21Y-123.542
X135.75Y-105.0
X135.75Y-123.542
X143.878Y-105.0
X143.878Y-123.542
X146.418Y-105.0
X146.418Y-123.542
T7
X100.0Y-80.0
X100.0Y-82.54
X100.0Y-85.08
X100.0Y-87.62
X100.0Y-90.16
X100.0Y-92.7
X100.0Y-95.24
X100.0Y-97.78
X100.0Y-100.32
X100.0Y-102.86
X100.0Y-105.4
X100.0Y-107.94
X100.0Y-110.48
X100.0Y-113.02
X100.0Y-115.56
X127.94Y-80.0
X127.94Y-82.54
X127.94Y-85.08
X127.94Y-87.62
X127.94Y-90.16
X127.94Y-92.7
X127.94Y-95.24
X127.94Y-97.78
X127.94Y-100.32
X127.94Y-102.86
X127.94Y-105.4
X127.94Y-107.94
X127.94Y-110.48
X127.94Y-113.02
X127.94Y-115.56
T8
X80.73Y-77.755
X96.27Y-77.755
X131.615Y-77.6
X147.155Y-77.6
M30
